<?xml version="1.0" standalone="no"?>
<!DOCTYPE svg PUBLIC "-//W3C//DTD SVG 20010904//EN"
 "http://www.w3.org/TR/2001/REC-SVG-20010904/DTD/svg10.dtd">
<svg version="1.0" xmlns="http://www.w3.org/2000/svg"
 width="1080.000000pt" height="1080.000000pt" viewBox="0 0 1080.000000 1080.000000"
 preserveAspectRatio="xMidYMid meet">
<metadata>
Created by potrace 1.14, written by Peter Selinger 2001-2017
</metadata>
<g transform="translate(0.000000,1080.000000) scale(0.100000,-0.100000)"
fill="#000000" stroke="none">
<path d="M0 10621 l0 -180 273 4 c368 4 604 15 623 30 14 10 15 31 9 168 l-7
157 -449 0 -449 0 0 -179z"/>
<path d="M1066 10769 c-3 -17 -7 -59 -7 -93 -1 -33 -4 -74 -8 -91 -3 -16 -5
-46 -3 -66 5 -51 35 -63 144 -55 216 16 1275 44 1767 47 119 0 159 4 177 16
14 9 45 14 76 14 217 -3 362 0 413 9 33 6 139 12 235 14 96 2 213 10 260 18
68 11 143 13 365 8 357 -9 597 -4 755 16 154 20 156 20 140 38 -8 10 -9 36 -4
85 l7 71 -1060 0 -1060 0 -7 -39 c-6 -40 -43 -76 -63 -63 -17 11 -33 49 -33
76 l0 26 -1044 0 -1043 0 -7 -31z"/>
<path d="M5596 10723 c4 -43 10 -82 15 -87 5 -5 91 -10 191 -11 221 -2 383
-14 416 -31 14 -7 30 -11 36 -9 6 2 23 6 37 9 19 4 28 14 32 33 4 24 21 83 44
156 5 16 -18 17 -386 17 l-391 0 6 -77z"/>
<path d="M6757 10740 c-8 -70 5 -102 38 -95 24 5 318 16 660 24 l250 6 11 25
c6 14 9 42 7 63 l-5 37 -478 0 -477 0 -6 -60z"/>
<path d="M7900 10751 c0 -27 6 -53 13 -59 16 -14 483 -15 672 -1 166 12 270
16 545 24 113 3 219 8 235 10 17 2 134 9 260 15 127 6 264 15 305 20 41 5 83
9 93 10 9 0 17 7 17 15 0 13 -126 15 -1070 15 l-1070 0 0 -49z"/>
<path d="M10265 10791 c8 -14 535 -15 535 -1 0 7 -92 10 -271 10 -166 0 -268
-4 -264 -9z"/>
<path d="M8280 10500 c-157 -17 -318 -123 -401 -265 -16 -27 -23 -56 -25 -109
-3 -77 -6 -80 -54 -46 -146 104 -436 132 -740 70 -255 -51 -453 -121 -540
-190 -30 -24 -116 -84 -150 -105 -4 -3 -8 16 -8 41 -1 24 -4 50 -8 55 -12 21
-35 184 -41 291 -3 73 -10 111 -19 119 -11 9 -16 5 -25 -15 -7 -14 -16 -26
-20 -26 -4 0 -10 -15 -14 -32 -3 -18 -15 -61 -26 -95 -17 -50 -20 -81 -16
-155 3 -51 6 -145 8 -209 l4 -117 -50 -28 c-27 -15 -60 -34 -71 -43 -12 -9
-32 -23 -44 -31 -12 -8 -45 -32 -73 -52 -49 -37 -68 -43 -51 -16 5 7 14 27 20
45 9 27 9 33 -5 38 -12 5 -9 10 14 20 32 14 27 18 -16 15 -16 -1 -29 5 -32 14
-8 19 -83 21 -252 7 -60 -6 -447 -12 -860 -15 -1045 -8 -1552 -16 -1750 -27
-93 -6 -314 -14 -490 -19 -372 -11 -643 -24 -805 -40 -63 -6 -176 -10 -250 -9
-322 6 -1082 2 -1275 -7 l-210 -9 -3 -712 c-2 -672 -1 -712 15 -715 10 -2 31
-1 48 4 32 8 95 -7 95 -23 0 -5 18 -9 40 -9 41 0 58 -19 18 -21 -43 -1 34 -19
82 -19 25 0 81 1 125 1 74 -1 135 14 135 31 0 5 7 8 15 8 8 0 19 9 25 19 14
27 140 52 140 28 0 -5 6 -4 14 2 12 10 18 2 34 -51 24 -78 39 -154 47 -233 4
-43 11 -65 25 -77 11 -9 20 -19 20 -22 0 -3 -19 -23 -42 -45 -35 -32 -48 -38
-70 -34 -20 4 -29 1 -34 -11 -5 -12 -10 -14 -19 -6 -19 16 -371 18 -367 3 4
-22 -16 -14 -55 20 -71 62 -119 95 -196 136 -80 42 -97 48 -97 32 0 -5 28 -24
62 -41 89 -46 165 -98 213 -145 54 -53 123 -155 146 -215 22 -58 52 -226 47
-266 -3 -25 -6 -21 -27 32 -75 187 -214 331 -376 389 l-65 24 0 -3820 0 -3819
648 0 c356 0 652 4 657 8 6 5 60 19 120 31 61 13 142 30 180 38 39 8 117 23
175 34 58 10 125 23 150 29 25 6 79 17 120 25 192 35 295 55 358 69 37 8 135
27 217 42 83 15 191 36 240 46 50 11 128 26 175 33 257 40 301 55 388 128 51
42 127 77 170 77 25 0 54 -10 88 -31 58 -37 56 -35 91 -124 14 -38 35 -86 46
-105 65 -119 85 -151 130 -208 27 -34 58 -69 70 -77 19 -13 421 -15 3399 -15
l3378 0 0 1201 c-1 1001 -3 1199 -14 1190 -20 -17 -24 -11 -120 203 -11 23
-16 50 -12 67 4 21 2 27 -8 23 -17 -6 -27 8 -59 86 -41 101 -67 181 -67 209 0
15 20 67 44 116 24 50 55 120 67 157 23 65 23 67 5 123 -17 53 -15 115 4 115
10 0 78 -75 119 -133 19 -26 36 -47 38 -47 2 0 3 716 3 1591 l0 1590 -85 -3
c-101 -4 -97 -15 -55 152 17 65 30 131 30 145 0 24 3 26 26 21 15 -4 39 -10
55 -13 46 -9 36 20 -19 54 l-49 30 -6 108 c-9 135 -9 358 -1 379 4 12 20 16
55 16 l49 0 0 229 0 228 -45 1 c-49 1 -100 23 -125 55 -18 22 -21 33 -70 247
-18 74 -36 148 -41 164 -5 16 -7 31 -6 33 2 2 42 -6 88 -17 84 -20 179 -27
179 -12 0 4 -28 21 -62 37 -72 35 -160 90 -238 149 -64 48 -79 65 -80 88 0 9
-18 59 -41 110 -53 119 -54 128 -24 128 13 0 27 5 31 11 4 8 38 9 111 4 84 -6
122 -14 191 -41 48 -19 97 -34 109 -34 l23 0 0 534 c0 457 -2 535 -14 539 -8
3 -86 1 -173 -5 -87 -5 -264 -8 -393 -6 -129 3 -316 2 -416 -2 -99 -4 -239 -5
-310 -1 -125 7 -133 9 -219 50 -161 76 -277 122 -354 141 -167 41 -547 59
-661 31 -30 -8 -72 -22 -93 -33 -21 -11 -43 -18 -49 -16 -22 8 -47 93 -47 166
-1 58 4 82 24 121 32 64 100 123 200 172 123 62 122 64 -15 49z m2163 -1032
c29 -12 70 -23 92 -25 50 -5 82 -20 120 -56 17 -16 37 -26 47 -23 10 2 15 0
12 -5 -3 -5 8 -17 25 -27 17 -9 31 -23 31 -30 0 -24 -34 -72 -55 -78 -11 -4
-30 -16 -42 -28 -48 -46 -60 -56 -69 -56 -5 0 -31 -17 -59 -38 -27 -21 -70
-43 -94 -51 -55 -16 -221 -30 -221 -18 0 5 -8 7 -19 4 -21 -5 -21 -5 -138 143
-46 58 -98 123 -117 145 -44 53 -74 101 -58 91 9 -5 23 1 40 17 21 20 48 29
117 41 121 21 136 22 243 18 62 -3 110 -11 145 -24z m-5833 -153 c21 -7 64
-16 96 -20 64 -7 176 -46 211 -73 20 -16 21 -20 10 -59 -6 -24 -15 -43 -21
-43 -11 0 -33 -19 -90 -79 -22 -24 -50 -47 -61 -52 -11 -5 -33 -18 -50 -29
-84 -55 -252 -90 -340 -71 -27 6 -66 13 -85 16 -20 3 -52 14 -73 25 -20 11
-53 29 -73 39 -20 11 -65 47 -99 80 -62 60 -63 62 -57 103 7 57 21 68 142 118
60 25 104 36 235 59 63 11 205 4 255 -14z m-2860 -29 c30 -8 89 -24 130 -36
41 -12 91 -25 110 -29 19 -5 58 -21 85 -38 46 -27 50 -33 53 -71 3 -40 1 -43
-34 -59 -38 -18 -52 -29 -134 -108 -25 -24 -76 -60 -115 -80 -60 -32 -83 -38
-164 -44 -134 -11 -275 3 -302 30 -12 12 -46 32 -77 46 -32 13 -71 39 -88 56
-45 47 -87 82 -107 90 -21 8 -23 46 -2 53 8 4 15 11 15 16 0 15 53 68 67 68 7
0 13 5 13 10 0 6 11 10 24 10 13 0 26 6 29 14 3 8 21 17 39 21 37 7 80 26 89
39 17 23 291 32 369 12z m3045 -631 c46 -12 69 -25 97 -54 33 -35 36 -43 31
-76 -6 -40 8 -59 39 -49 17 5 58 -17 90 -48 10 -10 29 -18 43 -18 16 0 25 -6
25 -15 0 -18 16 -20 23 -2 4 7 6 6 6 -5 1 -9 6 -18 12 -20 8 -3 5 -32 -10 -98
-11 -52 -27 -143 -34 -203 -8 -59 -17 -110 -20 -114 -4 -3 -16 7 -28 23 -12
16 -95 101 -183 190 -305 303 -553 424 -875 424 -52 0 -92 2 -89 5 8 8 217 8
263 0 29 -5 36 -4 25 4 -8 6 -31 11 -50 12 -28 1 -30 3 -10 6 14 3 31 10 39
16 7 7 45 19 85 29 93 21 429 17 521 -7z m-1340 -49 c55 -8 138 -22 185 -31
54 -10 163 -18 299 -21 240 -5 313 -13 419 -50 74 -25 101 -38 207 -102 143
-85 332 -248 425 -367 25 -31 57 -71 72 -88 26 -30 28 -37 27 -132 -1 -71 -3
-90 -9 -67 -9 39 -20 53 -21 26 0 -15 -2 -14 -10 6 -8 20 -12 22 -20 10 -6
-10 -11 -12 -16 -4 -5 6 -18 16 -31 23 -12 7 -20 16 -17 22 4 5 1 9 -4 9 -13
0 -13 -3 -5 -24 3 -9 12 -16 20 -16 8 0 14 -3 14 -7 0 -5 16 -19 35 -32 40
-27 45 -41 13 -41 -23 0 -44 16 -134 98 -27 26 -61 56 -75 67 l-24 20 18 -21
c9 -11 17 -26 17 -33 0 -7 5 -9 10 -6 6 3 10 1 10 -5 0 -6 4 -9 9 -5 5 3 12
-3 15 -12 3 -10 22 -29 41 -42 26 -18 32 -26 23 -32 -20 -13 -28 -11 -28 7 0
8 -5 12 -10 9 -18 -11 9 -47 29 -40 19 6 71 -13 71 -25 0 -4 -9 -10 -21 -13
-28 -7 -15 -26 14 -21 16 3 18 2 5 -3 -14 -7 -12 -12 17 -31 l35 -22 1 27 c2
25 2 25 9 -7 7 -32 7 -30 9 20 2 66 21 50 21 -17 0 -58 -16 -56 -120 12 -46
30 -86 55 -88 55 -13 0 -216 174 -297 255 -57 57 -201 220 -242 275 -22 30
-50 65 -62 77 -12 12 -21 26 -21 30 -1 10 -36 53 -44 53 -20 0 4 -43 76 -138
135 -178 284 -339 413 -447 33 -27 62 -52 65 -55 3 -3 57 -43 120 -89 63 -47
117 -86 119 -88 2 -1 2 -6 -2 -9 -3 -3 -23 6 -44 20 -20 14 -43 26 -50 26 -7
0 -12 3 -12 8 3 19 -2 23 -16 12 -8 -7 -12 -16 -9 -21 9 -15 -21 -21 -50 -9
-15 5 -39 25 -54 42 -15 18 -44 51 -64 73 -21 22 -47 52 -59 68 -23 31 -109
93 -109 79 0 -5 20 -28 45 -50 25 -22 45 -45 45 -51 0 -6 5 -11 11 -11 5 0 7
5 3 12 -4 7 -3 8 4 4 6 -4 9 -12 6 -19 -7 -19 148 -164 185 -172 45 -10 38
-23 -13 -21 -30 1 -42 5 -39 14 3 7 -3 12 -13 12 -11 0 -54 36 -96 80 -42 44
-82 80 -90 80 -9 -1 -7 -5 5 -14 9 -7 17 -18 17 -24 0 -11 -31 -25 -46 -20 -5
1 -19 -3 -31 -10 -25 -14 -33 -7 -149 119 -155 168 -279 405 -344 657 -12 48
-30 56 -30 13 0 -36 53 -198 86 -263 13 -26 24 -53 24 -60 0 -7 6 -25 14 -40
8 -14 19 -43 26 -65 19 -57 77 -167 140 -262 103 -157 123 -185 147 -207 14
-13 22 -28 18 -34 -3 -6 -3 -9 2 -8 8 3 41 -25 135 -112 38 -36 46 -48 37 -60
-9 -12 -10 -12 -5 4 5 15 2 17 -14 13 -10 -3 -18 -2 -17 2 5 14 -32 53 -44 45
-9 -5 -10 -2 -6 10 5 13 1 19 -12 23 -11 3 -22 11 -25 19 -3 8 -10 14 -16 14
-14 0 -13 -27 3 -33 7 -3 5 -6 -6 -6 -11 -1 -23 13 -33 39 -13 31 -22 40 -40
40 -13 0 -24 5 -24 10 0 6 11 8 25 4 14 -3 25 -4 25 -1 0 6 -35 49 -65 81 -12
11 -29 34 -38 49 -14 22 -21 26 -32 17 -10 -8 -15 -8 -21 1 -4 8 -3 9 5 5 19
-12 24 23 6 50 -9 14 -19 23 -23 20 -3 -4 0 -12 6 -18 15 -15 16 -28 2 -28 -5
0 -10 6 -10 14 0 7 -7 19 -15 26 -12 10 -13 15 -4 21 9 5 7 13 -5 30 -9 13
-16 18 -16 11 0 -7 -4 -10 -10 -7 -5 3 -10 16 -10 28 0 15 -3 18 -11 10 -8 -8
3 -37 40 -106 50 -93 61 -127 41 -127 -15 0 -52 60 -121 198 -48 95 -67 103
-22 10 64 -136 64 -136 42 -131 -10 3 -19 14 -19 24 0 10 -5 21 -11 25 -12 7
-10 -19 9 -104 10 -45 1 -62 -22 -42 -21 17 -83 149 -97 205 -6 28 -16 54 -20
59 -5 6 -9 18 -9 28 0 10 -4 18 -10 18 -5 0 -10 -4 -10 -9 0 -5 -3 -17 -7 -27
-5 -13 -3 -16 10 -11 20 8 26 -9 16 -52 -4 -18 -5 -40 -2 -47 3 -8 -1 -14 -10
-14 -8 0 -17 -6 -20 -12 -2 -7 -13 6 -23 30 -10 23 -24 42 -30 42 -18 0 -29
-80 -14 -90 7 -5 10 -16 6 -25 -4 -13 -2 -16 9 -11 12 4 14 0 8 -22 -6 -24 -5
-26 10 -13 10 8 17 9 17 3 0 -6 -5 -14 -11 -17 -6 -4 -8 -13 -5 -21 3 -8 2
-14 -2 -14 -11 0 -49 100 -60 160 -37 192 -52 304 -62 450 -6 90 -13 166 -16
169 -2 3 -8 0 -14 -5 -10 -11 5 -337 19 -399 5 -22 17 -85 26 -140 15 -93 43
-213 61 -260 7 -18 6 -18 -9 -6 -9 7 -17 27 -17 43 0 24 -4 29 -16 24 -13 -5
-15 -1 -10 19 5 18 2 25 -9 25 -8 0 -21 14 -30 30 -9 17 -19 30 -23 30 -4 0
-12 10 -17 23 -7 14 -19 22 -35 22 -21 0 -24 -4 -22 -25 4 -24 15 -36 27 -28
3 2 16 -15 30 -37 15 -25 24 -33 25 -22 0 9 3 17 8 17 4 0 8 -24 9 -52 0 -29
4 -73 7 -98 l6 -45 -14 35 c-8 19 -15 51 -15 71 -1 20 -8 42 -16 49 -8 7 -15
19 -15 27 0 8 -5 11 -10 8 -6 -3 -8 -18 -5 -33 3 -15 2 -20 -1 -12 -13 30 -37
50 -61 50 -14 0 -23 6 -23 15 0 8 -5 15 -11 15 -6 0 -8 -11 -4 -29 4 -21 2
-30 -10 -35 -15 -5 -15 -9 4 -40 12 -18 21 -37 21 -42 -1 -5 -7 2 -16 16 -14
24 -14 24 -8 -15 4 -22 10 -47 14 -55 4 -8 10 -33 13 -55 7 -40 -34 77 -74
213 -17 61 -19 80 -10 120 5 26 15 81 21 122 12 77 39 173 70 245 36 83 40 97
35 106 -11 17 -25 9 -37 -18 -6 -16 -19 -47 -29 -69 -54 -124 -99 -344 -99
-489 0 -107 19 -306 31 -320 5 -5 9 -20 8 -35 0 -22 -1 -23 -8 -5 -5 11 -7 23
-4 28 2 4 -1 7 -6 7 -6 0 -11 14 -11 32 0 46 -21 199 -31 228 -9 24 -9 24 -5
-3 2 -18 0 -25 -6 -19 -22 22 -47 1 -50 -42 -2 -24 -8 -40 -14 -39 -20 4 -25
-37 -6 -44 9 -4 20 -11 24 -17 11 -16 10 -96 -1 -96 -5 0 -5 -18 1 -42 5 -24
8 -63 7 -88 -3 -76 18 -135 35 -97 3 6 4 -19 2 -56 -2 -38 -9 -74 -15 -80 -14
-14 -14 -37 -1 -37 6 0 10 9 10 20 0 24 6 25 26 6 18 -18 18 -26 0 -26 -16 0
-26 -21 -26 -53 0 -12 -19 -41 -42 -64 -23 -24 -37 -43 -30 -43 17 0 15 -68
-2 -86 -10 -10 -38 -14 -90 -14 l-76 0 0 30 c0 28 -2 30 -40 30 -22 0 -40 4
-40 8 0 16 -35 9 -51 -10 -27 -30 -49 -17 -49 30 0 13 2 12 14 -3 13 -18 14
-18 9 8 -4 22 -2 27 16 27 11 0 21 5 21 10 0 6 -5 10 -11 10 -7 0 -9 12 -5 34
8 43 -3 166 -15 166 -5 0 -9 -7 -9 -17 0 -14 -2 -14 -20 2 -13 12 -20 31 -20
57 0 21 -4 38 -9 38 -6 0 -12 19 -14 43 -2 23 -4 3 -5 -45 -1 -48 -6 -90 -12
-93 -5 -3 -10 -1 -10 4 0 6 -4 11 -10 11 -15 0 -12 -17 7 -35 11 -11 13 -19 6
-23 -17 -11 8 -110 26 -104 10 3 12 0 8 -11 -3 -8 1 -23 8 -34 14 -17 14 -17
15 5 0 12 5 22 10 22 6 0 10 -11 10 -25 0 -14 -4 -25 -9 -25 -13 0 -20 -79 -9
-111 5 -16 8 -34 6 -40 -11 -34 -98 330 -101 423 -1 31 -5 54 -9 51 -5 -2 -8
18 -8 45 0 27 -4 62 -9 78 -5 16 -12 45 -15 65 -5 31 -11 37 -31 37 -26 0 -31
-7 -16 -23 10 -12 31 -139 31 -189 0 -20 4 -55 10 -78 35 -153 52 -240 47
-244 -3 -4 -9 10 -12 30 -4 21 -13 36 -21 36 -8 0 -14 8 -15 18 -1 9 -2 37 -3
62 -4 85 -19 165 -34 176 -7 5 -13 17 -11 25 1 7 -1 21 -5 31 -4 9 -3 33 3 55
14 47 14 56 1 48 -5 -3 -10 -18 -10 -33 0 -17 -3 -23 -10 -16 -7 7 -7 21 1 42
12 34 5 82 -11 82 -6 0 -11 -21 -12 -47 l-1 -48 -6 40 c-5 34 -10 40 -31 40
-23 0 -25 -4 -28 -52 -2 -42 1 -53 13 -53 12 0 15 -16 14 -92 -1 -51 -4 -83
-6 -70 -2 12 -11 22 -18 22 -7 0 -15 -10 -18 -22 -2 -13 -3 12 -1 55 1 43 -2
90 -6 105 -5 16 -9 -72 -9 -210 -1 -148 3 -239 9 -243 6 -3 11 2 12 12 1 10 4
-7 7 -37 4 -39 2 -57 -6 -63 -19 -12 -16 -27 5 -21 14 5 14 4 3 -4 -12 -9 -13
-15 -3 -37 15 -32 15 -45 1 -25 -8 11 -9 6 -5 -20 3 -19 8 -66 10 -105 4 -56
3 -61 -3 -25 -40 223 -60 631 -41 862 27 332 94 563 204 702 41 52 156 169
216 222 80 69 330 228 403 255 26 10 38 39 17 39 -22 0 -280 -150 -310 -180
-3 -3 -32 -25 -65 -49 -75 -55 -106 -83 -219 -199 l-91 -92 -80 -1 c-162 0
-410 -44 -620 -110 -55 -17 -113 -34 -130 -39 -16 -4 -55 -15 -85 -23 -30 -9
-77 -22 -105 -30 -82 -23 -287 -105 -361 -144 -38 -20 -90 -46 -116 -59 -53
-27 -65 -50 -20 -39 15 3 83 24 152 45 69 22 181 52 250 69 180 42 180 42 335
65 55 8 123 19 150 25 53 11 408 41 488 41 l47 0 -14 -35 c-41 -96 -86 -384
-86 -547 0 -119 -19 -154 -21 -40 -1 37 -4 54 -6 39 -3 -20 -9 -27 -19 -23 -8
3 -22 1 -32 -4 -70 -38 -350 -90 -617 -115 -189 -18 -546 -23 -807 -12 -119 5
-188 5 -188 -1 0 -5 12 -12 27 -15 60 -13 537 -29 688 -23 187 7 475 32 525
45 28 7 157 32 295 56 11 2 39 8 63 13 32 8 42 7 42 -2 0 -7 -6 -13 -12 -13
-24 -1 -152 -24 -156 -28 -7 -6 100 3 126 10 13 4 22 3 22 -3 0 -6 -18 -13
-40 -17 -22 -4 -40 -11 -40 -17 0 -6 -10 -20 -23 -32 -18 -17 -22 -29 -19 -67
4 -43 5 -46 43 -56 22 -6 40 -6 41 -1 6 16 38 -4 38 -23 0 -27 -18 -24 -23 4
-3 16 -5 13 -6 -10 0 -18 -5 -33 -11 -33 -16 0 -11 -33 10 -68 20 -33 28 -102
11 -102 -5 0 -12 -36 -16 -80 -4 -44 -11 -80 -16 -80 -5 0 -9 -18 -9 -40 0
-34 -3 -40 -21 -40 -18 0 -20 -5 -18 -45 3 -39 -1 -49 -30 -79 -31 -32 -36
-34 -152 -46 -108 -12 -119 -15 -114 -31 6 -17 3 -17 -27 -7 -18 6 -27 13 -20
16 8 2 7 8 -5 20 -12 12 -18 13 -21 4 -2 -6 -8 -12 -13 -12 -6 0 -8 4 -5 8 3
5 -29 9 -72 9 -54 0 -68 -2 -47 -7 36 -9 32 -12 -17 -15 -21 -1 -38 2 -38 6 0
5 5 9 10 9 6 0 10 7 10 15 0 10 -10 15 -32 15 -18 0 -42 3 -54 6 -12 3 -27 -1
-36 -9 -24 -24 -74 -30 -109 -13 -18 9 -37 16 -43 16 -6 0 -23 6 -37 14 -14 7
-38 16 -53 20 -16 4 -47 15 -70 25 -22 11 -81 33 -131 51 -49 17 -94 35 -100
39 -5 4 -32 16 -60 26 -42 15 -46 20 -30 27 16 6 14 7 -7 3 -18 -3 -46 5 -85
24 -32 16 -69 32 -83 36 -28 9 -92 47 -131 79 -14 12 -38 30 -53 41 -149 107
-376 309 -376 334 0 37 239 287 450 473 97 85 280 224 421 319 215 145 328
203 544 279 124 43 135 48 135 60 0 19 -10 16 -200 -54 -208 -77 -497 -212
-675 -314 -78 -45 -315 -199 -325 -211 -3 -3 -39 -32 -82 -63 -42 -31 -87 -67
-100 -80 -101 -97 -87 -69 36 69 181 206 398 393 661 572 64 43 352 221 358
221 3 0 51 22 108 48 283 132 582 212 904 241 138 13 587 4 710 -13z m-2735
-436 c0 -5 -5 -10 -11 -10 -5 0 -7 5 -4 10 3 6 8 10 11 10 2 0 4 -4 4 -10z
m4562 -202 c-12 -57 -24 -125 -28 -153 -9 -69 -18 -84 -34 -56 -12 24 -8 64
15 136 7 22 23 73 36 112 12 40 25 71 27 68 2 -2 -5 -50 -16 -107z m988 -211
c1 -12 18 -73 38 -135 21 -62 36 -115 33 -117 -2 -3 -21 -5 -42 -5 -24 0 -39
5 -43 16 -11 28 -7 276 4 269 6 -3 10 -16 10 -28z m-2210 -10 c0 -4 -6 -2 -14
5 -8 7 -12 17 -9 22 5 8 23 -12 23 -27z m-100 3 c0 -5 -4 -10 -10 -10 -5 0
-10 5 -10 10 0 6 5 10 10 10 6 0 10 -4 10 -10z m1256 -37 c15 -21 19 -47 5
-38 -10 5 -25 -35 -35 -92 -3 -20 -1 -33 7 -37 7 -2 4 -5 -7 -5 -15 -1 -17 4
-12 27 3 15 9 57 12 95 4 37 9 67 12 67 3 0 11 -8 18 -17z m-566 -36 c0 -8 9
-22 19 -31 31 -28 31 -50 0 -68 -27 -16 -30 -15 -56 5 -15 12 -34 27 -41 34
-7 7 -21 17 -30 23 -15 8 -15 11 -2 20 8 5 20 10 25 10 6 0 3 -4 -5 -10 -11
-7 -9 -11 13 -19 15 -6 27 -18 27 -27 0 -10 5 -14 16 -10 8 3 13 2 10 -3 -11
-16 23 -20 39 -5 14 15 13 18 -10 41 -25 26 -33 53 -15 53 6 0 10 -6 10 -13z
m-453 -19 c-3 -8 -6 -5 -6 6 -1 11 2 17 5 13 3 -3 4 -12 1 -19z m2413 -120 c0
-5 -8 -8 -19 -8 -20 0 -31 41 -30 115 0 39 1 38 24 -30 14 -38 25 -73 25 -77z
m-1979 101 c20 -28 20 -30 3 -21 -11 6 -28 20 -38 31 -16 18 -17 21 -3 21 8 0
26 -14 38 -31z m-315 -69 c4 -14 11 -30 16 -37 6 -7 4 -13 -4 -16 -7 -3 -2 -6
11 -6 16 -1 21 -5 17 -16 -7 -18 37 -110 88 -188 22 -31 37 -60 34 -63 -3 -3
-15 10 -26 28 -12 19 -30 45 -42 57 -11 13 -20 28 -20 32 0 4 -22 43 -50 87
-40 66 -100 178 -100 188 0 2 16 -7 35 -19 19 -12 38 -33 41 -47z m-523 35 c4
-8 3 -16 -1 -19 -4 -3 -9 4 -9 15 -2 23 3 25 10 4z m427 -30 c0 -12 4 -25 9
-30 9 -11 41 -102 41 -118 0 -5 -6 -4 -14 3 -8 6 -12 19 -9 27 4 11 2 14 -5 9
-12 -7 -31 52 -37 118 -3 28 -1 36 5 26 5 -8 10 -24 10 -35z m-230 -15 l-8
-35 1 42 c1 23 5 39 9 35 4 -4 3 -23 -2 -42z m130 34 c0 -8 -4 -12 -10 -9 -5
3 -10 10 -10 16 0 5 5 9 10 9 6 0 10 -7 10 -16z m610 -4 c0 -10 8 -23 17 -29
10 -5 15 -13 10 -17 -4 -4 -16 1 -27 11 -19 17 -21 17 -40 0 -11 -10 -23 -15
-28 -10 -4 4 -2 10 5 12 20 7 53 40 46 47 -3 3 -1 6 5 6 7 0 12 -9 12 -20z
m-831 -149 c1 -13 -1 -22 -4 -19 -9 8 -15 47 -20 118 l-5 65 14 -70 c8 -38 15
-81 15 -94z m240 102 c0 -25 -1 -26 -9 -8 -12 27 -12 35 0 35 6 0 10 -12 9
-27z m58 -15 c1 -30 1 -31 -7 -8 -11 33 -12 52 -2 46 4 -2 8 -19 9 -38z m783
22 c0 -5 -4 -10 -10 -10 -5 0 -10 5 -10 10 0 6 5 10 10 10 6 0 10 -4 10 -10z
m-257 -34 c-4 -5 1 -7 11 -3 11 5 15 3 10 -5 -5 -8 2 -9 22 -4 21 5 25 4 14
-4 -13 -9 -13 -11 0 -19 8 -5 19 -7 25 -4 6 4 6 2 -1 -6 -8 -9 -25 -3 -69 24
-32 19 -51 35 -42 35 9 0 17 6 17 13 0 8 3 7 9 -3 6 -8 7 -18 4 -24z m361 28
c12 -5 16 -19 14 -63 -1 -53 -2 -54 -5 -11 -3 25 -12 53 -20 62 -17 19 -14 22
11 12z m325 -103 c-1 -38 -3 -36 -14 14 -6 26 -8 27 -16 12 -6 -9 -7 -22 -4
-27 3 -6 1 -10 -4 -10 -12 0 -14 33 -4 69 l6 24 19 -22 c10 -14 18 -38 17 -60z
m-1469 30 c5 -19 5 -31 -1 -31 -5 0 -9 6 -9 13 0 6 -3 23 -7 37 -9 36 6 19 17
-19z m1265 19 c3 -5 1 -10 -4 -10 -6 0 -11 -7 -11 -15 0 -8 -4 -15 -10 -15 -5
0 -10 11 -10 25 0 25 23 35 35 15z m-982 -37 c3 -16 1 -32 -4 -37 -5 -6 -9 -2
-9 11 0 12 -3 28 -6 37 -3 9 -2 16 4 16 5 0 12 -12 15 -27z m2443 -27 c111
-209 109 -206 94 -216 -12 -8 -11 -10 7 -10 15 0 29 -14 49 -47 87 -149 266
-384 281 -369 4 3 -10 59 -30 123 -32 105 -108 402 -107 421 1 4 16 -29 34
-73 51 -124 98 -211 174 -324 l71 -103 -39 -77 c-22 -42 -47 -89 -57 -106 -10
-16 -38 -63 -62 -105 -24 -41 -80 -129 -124 -194 -73 -110 -76 -117 -45 -98
89 56 226 171 365 309 84 84 153 150 153 148 0 -2 -11 -37 -25 -77 -14 -40
-30 -89 -36 -108 -6 -19 -15 -45 -21 -57 -13 -27 -1 -46 13 -21 6 10 27 37 47
61 20 24 47 57 59 73 21 26 20 21 -8 -56 -63 -177 -200 -466 -260 -552 -11
-14 -19 -31 -19 -37 0 -6 -6 -11 -12 -12 -10 0 -10 -2 0 -6 14 -6 85 46 206
150 46 40 93 79 106 87 45 30 279 274 325 340 22 32 42 41 26 12 -5 -10 -31
-83 -56 -162 -58 -178 -81 -234 -156 -378 -67 -128 -61 -132 45 -23 37 39 72
71 76 71 4 0 34 33 66 73 33 39 65 78 72 86 7 8 21 26 30 40 23 35 45 61 53
61 8 0 29 -96 31 -145 1 -25 -9 -60 -25 -95 -14 -30 -25 -55 -24 -57 2 -1 21
4 42 12 23 8 79 14 131 15 105 0 134 14 187 88 53 74 38 156 -52 279 -43 60
-65 62 -153 18 -40 -20 -81 -44 -90 -52 -20 -18 -25 -1 -5 19 23 25 65 95 111
187 l47 92 47 -40 c47 -39 107 -59 162 -53 29 3 70 45 69 70 0 14 -2 14 -6 2
-21 -57 -83 -76 -146 -44 -52 27 -107 74 -107 92 0 25 82 242 92 242 4 0 8 -4
8 -9 0 -5 32 -57 70 -115 39 -59 70 -113 70 -121 0 -7 5 -17 10 -20 6 -4 9 -3
8 2 -9 26 18 10 83 -51 41 -38 95 -85 122 -105 26 -19 47 -39 47 -44 0 -54
-312 -518 -434 -645 -82 -86 -105 -94 -260 -90 -158 4 -200 -9 -235 -73 -30
-52 -15 -49 37 9 l43 47 157 0 c147 1 161 2 195 24 20 12 41 30 46 39 9 15 12
14 28 -8 41 -58 83 -156 102 -238 29 -127 43 -278 30 -327 -6 -22 -10 -52 -10
-67 2 -53 -87 -303 -136 -381 -14 -22 -23 -41 -21 -43 7 -6 177 166 227 230
43 55 46 57 52 35 4 -13 7 -43 8 -67 2 -103 64 -324 99 -355 16 -14 17 -5 17
141 0 163 9 228 26 201 5 -7 9 -35 9 -61 0 -65 36 -267 56 -318 20 -50 18 -52
-66 -76 -120 -34 -457 -151 -680 -236 -129 -50 -245 -92 -257 -95 -27 -6 -29
13 -9 67 8 19 34 91 59 160 24 69 57 154 71 189 27 67 33 92 17 75 -5 -5 -14
-27 -21 -49 -7 -22 -17 -45 -22 -51 -4 -7 -22 -49 -37 -95 -16 -46 -42 -115
-57 -154 -15 -38 -32 -89 -38 -112 -8 -34 -17 -45 -51 -61 -79 -39 -181 -80
-215 -87 -19 -4 -51 -15 -70 -25 -90 -45 -135 -38 -232 36 -79 59 -103 65
-154 33 -41 -25 -50 -20 -59 28 -12 65 -76 224 -116 291 -22 35 -37 68 -34 72
3 4 -3 7 -12 6 -9 0 -18 4 -20 11 -3 8 37 25 111 48 106 33 136 48 123 61 -5
5 -105 -25 -240 -72 -38 -13 -75 -24 -82 -24 -8 0 -40 -11 -70 -26 -31 -14
-136 -50 -233 -81 -156 -49 -190 -56 -285 -61 -97 -4 -109 -3 -122 14 -9 12
-14 14 -15 6 0 -29 -230 -112 -365 -132 -33 -4 -109 -20 -170 -35 -103 -24
-156 -36 -312 -70 -79 -17 -138 -52 -197 -115 -43 -46 -96 -138 -96 -167 0
-24 -16 -13 -97 70 -57 58 -96 108 -131 172 -27 50 -61 111 -76 138 -31 54
-35 52 89 32 103 -17 135 -18 135 -7 0 4 -52 16 -115 26 -63 10 -123 20 -132
22 -28 8 -137 216 -213 409 -101 253 -190 553 -224 754 -25 141 -29 134 60
100 93 -36 317 -94 399 -103 l60 -8 -71 49 c-149 101 -200 146 -374 325 -51
54 -91 100 -88 104 4 3 32 -15 63 -40 30 -25 62 -46 69 -46 7 0 32 -13 54 -30
23 -16 44 -30 48 -30 8 0 -41 61 -121 150 -67 75 -174 204 -189 228 -13 22 4
13 47 -27 89 -81 214 -152 387 -219 72 -28 161 -54 166 -49 3 2 -37 36 -88 74
-158 119 -332 306 -410 438 -16 28 -47 79 -70 115 -22 36 -49 84 -59 107 -18
42 -18 43 4 58 34 24 52 18 90 -27 70 -86 293 -294 279 -262 -4 11 -32 66 -61
124 -58 114 -104 237 -95 252 4 6 1 14 -6 18 -29 18 -86 347 -105 605 l-6 80
23 -55 c66 -155 211 -406 298 -515 39 -49 38 -61 -7 -70 l-38 -8 33 -7 c18 -4
42 -5 53 -3 15 4 34 -8 70 -43 50 -49 59 -68 37 -77 -7 -3 1 -6 18 -6 22 -1
46 -14 78 -42 54 -48 70 -46 32 4 -38 50 -34 61 33 81 l59 17 68 -44 c38 -24
95 -55 127 -70 l57 -26 -62 70 c-35 38 -64 74 -66 79 -7 19 29 10 98 -25 39
-19 96 -42 128 -50 35 -9 63 -23 72 -36 66 -93 176 -189 247 -214 26 -9 56
-21 67 -27 11 -6 21 -6 25 -1 48 71 138 177 157 185 21 10 28 8 53 -16 16 -15
48 -32 72 -37 39 -9 46 -7 83 19 30 21 45 42 54 73 8 24 18 53 23 64 6 13 6
32 0 53 -7 23 -7 30 1 26 8 -5 9 0 3 17 -17 55 5 119 42 119 8 0 13 12 14 33
1 93 7 121 28 138 15 12 17 19 9 23 -9 3 -8 8 5 16 11 7 17 24 17 45 0 19 4
35 9 35 4 0 6 11 3 25 -5 31 10 32 31 3 l16 -23 1 25 c1 15 17 41 40 65 22 22
40 43 40 48 0 4 7 7 15 7 16 0 96 -100 89 -112 -3 -4 -17 -8 -32 -9 -42 -1
-135 -33 -140 -48 -3 -8 0 -11 5 -8 5 3 20 -1 32 -9 l22 -15 -32 -40 -31 -39
48 20 c51 22 65 19 46 -10 -7 -11 -12 -22 -12 -25 0 -9 76 33 109 61 l32 26
131 -22 c131 -21 208 -44 208 -61 0 -12 -57 -128 -71 -145 -9 -11 -8 -14 3
-14 19 0 76 42 111 82 25 29 28 30 45 14 26 -23 28 -21 24 24 -4 36 -2 40 29
53 l34 14 -40 12 c-22 6 -45 14 -51 18 -14 10 -63 140 -71 189 -6 34 -4 37 13
30 10 -4 35 -10 54 -12 l35 -5 -27 16 c-16 9 -28 23 -28 33 0 13 -2 14 -9 4
-13 -21 -44 -10 -58 19 -16 33 -37 164 -30 183 13 33 44 17 73 -38z m-3119 22
c-3 -8 -6 -5 -6 6 -1 11 2 17 5 13 3 -3 4 -12 1 -19z m633 -19 c0 -4 -4 -11
-10 -14 -6 -3 -7 1 -4 9 3 9 1 16 -5 16 -6 0 -11 8 -11 18 1 15 2 15 15 -2 8
-11 15 -23 15 -27z m710 -2 c14 -5 20 -11 15 -13 -6 -3 -29 5 -50 16 -39 20
-18 18 35 -3z m-834 -19 c14 -28 15 -31 2 -20 -14 11 -31 52 -22 52 2 0 11
-15 20 -32z m1121 -30 c-2 -13 -4 -3 -4 22 0 25 2 35 4 23 2 -13 2 -33 0 -45z
m1225 24 c9 -18 26 -54 37 -80 12 -26 49 -92 82 -147 68 -113 73 -124 67 -130
-4 -5 -106 29 -222 72 l-50 18 -16 70 -17 70 51 5 c64 6 62 24 -3 28 -53 3
-61 13 -61 80 0 30 2 32 34 32 19 0 38 5 41 11 12 19 40 5 57 -29z m-2112 -13
c0 -5 -4 -9 -10 -9 -5 0 -10 7 -10 16 0 8 5 12 10 9 6 -3 10 -10 10 -16z m660
11 c8 -5 11 -10 5 -10 -5 0 -17 5 -25 10 -8 5 -10 10 -5 10 6 0 17 -5 25 -10z
m-1403 -32 c-3 -7 -5 -2 -5 12 0 14 2 19 5 13 2 -7 2 -19 0 -25z m680 0 c-3
-7 -5 -2 -5 12 0 14 2 19 5 13 2 -7 2 -19 0 -25z m-370 0 c-3 -8 -6 -5 -6 6
-1 11 2 17 5 13 3 -3 4 -12 1 -19z m50 -10 c-3 -7 -5 -2 -5 12 0 14 2 19 5 13
2 -7 2 -19 0 -25z m274 9 c-10 -9 -11 -8 -5 6 3 10 9 15 12 12 3 -3 0 -11 -7
-18z m404 13 c3 -5 1 -10 -4 -10 -6 0 -11 5 -11 10 0 6 2 10 4 10 3 0 8 -4 11
-10z m431 -5 c14 -11 15 -14 4 -14 -8 0 -24 6 -34 14 -15 11 -16 15 -5 15 8 0
24 -7 35 -15z m401 -7 c-3 -8 -6 -5 -6 6 -1 11 2 17 5 13 3 -3 4 -12 1 -19z
m-23 -5 c4 -9 -3 -13 -19 -13 -23 0 -32 10 -20 22 10 10 34 4 39 -9z m-1310
-9 c3 -8 2 -12 -4 -9 -6 3 -10 10 -10 16 0 14 7 11 14 -7z m251 -75 c8 -21 13
-39 11 -39 -7 0 -56 107 -56 121 1 18 27 -30 45 -82z m-138 59 c-3 -8 -6 -5
-6 6 -1 11 2 17 5 13 3 -3 4 -12 1 -19z m916 15 c-7 -2 -19 -2 -25 0 -7 3 -2
5 12 5 14 0 19 -2 13 -5z m-433 -48 c5 -11 18 -41 29 -67 12 -26 21 -59 21
-73 0 -14 4 -24 9 -21 9 6 65 -103 57 -111 -5 -5 -26 37 -41 82 -5 13 -9 16
-12 7 -10 -25 -85 175 -82 219 0 11 2 11 6 -1 2 -8 8 -24 13 -35z m517 39 c-3
-3 -12 -4 -19 -1 -8 3 -5 6 6 6 11 1 17 -2 13 -5z m43 -4 c0 -5 -7 -10 -16
-10 -8 0 -12 5 -9 10 3 6 10 10 16 10 5 0 9 -4 9 -10z m-993 -22 c-3 -8 -6 -5
-6 6 -1 11 2 17 5 13 3 -3 4 -12 1 -19z m223 12 c0 -5 -2 -10 -4 -10 -3 0 -8
5 -11 10 -3 6 -1 10 4 10 6 0 11 -4 11 -10z m313 -57 c-5 -13 -7 -13 -15 1
-19 34 -25 14 -10 -33 13 -38 19 -45 25 -33 4 11 5 7 2 -10 -4 -22 3 -35 35
-68 22 -22 40 -46 40 -53 0 -7 -12 2 -26 18 -30 36 -29 31 18 -63 20 -40 46
-81 57 -91 22 -19 28 -41 11 -41 -5 0 -10 5 -10 12 0 6 -7 19 -15 28 -13 14
-27 40 -80 140 -47 89 -88 186 -90 212 0 3 -3 10 -7 14 -5 4 -8 13 -8 20 0 8
14 4 39 -13 26 -17 37 -31 34 -40z m-663 29 c0 -15 -2 -15 -10 -2 -13 20 -13
33 0 25 6 -3 10 -14 10 -23z m1310 4 c0 -8 3 -23 6 -33 5 -15 3 -15 -7 2 -6
11 -13 21 -14 23 -2 2 -14 0 -29 -4 -31 -7 -33 -25 -10 -96 11 -31 13 -52 7
-56 -5 -4 -15 -16 -22 -27 -10 -17 -11 -10 -8 42 3 34 0 66 -5 71 -6 6 -6 23
-1 43 9 33 19 39 76 48 4 0 7 -5 7 -13z m-1683 -38 c-3 -7 -5 -2 -5 12 0 14 2
19 5 13 2 -7 2 -19 0 -25z m922 -13 c0 -5 -4 -3 -9 5 -5 8 -9 22 -9 30 0 16
17 -16 18 -35z m-1040 -65 c0 -8 -6 3 -14 25 -8 22 -14 49 -14 60 0 11 7 0 15
-25 7 -25 14 -52 13 -60z m505 74 c3 -8 2 -12 -4 -9 -6 3 -10 10 -10 16 0 14
7 11 14 -7z m83 -16 c-3 -7 -5 -2 -5 12 0 14 2 19 5 13 2 -7 2 -19 0 -25z
m621 14 c15 -10 36 -22 46 -26 10 -3 16 -9 13 -12 -6 -6 -63 23 -85 44 -20 18
-4 15 26 -6z m1295 -15 c-4 -7 -20 -29 -37 -49 -24 -28 -34 -34 -44 -26 -11 9
-9 15 7 32 11 12 29 31 41 44 20 22 47 22 33 -1z m-2196 -24 c-3 -10 -5 -4 -5
12 0 17 2 24 5 18 2 -7 2 -21 0 -30z m598 -45 c15 -29 32 -58 38 -63 23 -20
77 -94 77 -106 0 -14 -144 177 -153 204 -14 38 13 14 38 -35z m140 32 c3 -5 1
-10 -4 -10 -6 0 -11 5 -11 10 0 6 2 10 4 10 3 0 8 -4 11 -10z m785 -39 c0 -14
7 -32 15 -41 13 -14 12 -16 -3 -16 -12 0 -18 10 -19 31 -1 16 -5 41 -8 55 -4
19 -3 21 5 10 5 -8 10 -26 10 -39z m-2783 2 c-3 -10 -5 -4 -5 12 0 17 2 24 5
18 2 -7 2 -21 0 -30z m2408 -3 c3 -5 1 -10 -4 -10 -6 0 -11 5 -11 10 0 6 2 10
4 10 3 0 8 -4 11 -10z m-1115 -27 c0 -22 -2 -25 -10 -13 -13 20 -13 40 0 40 6
0 10 -12 10 -27z m1344 -51 c4 -12 5 -22 3 -22 -9 0 -55 89 -49 94 6 7 36 -40
46 -72z m-215 13 c0 -5 -4 -3 -9 5 -5 8 -9 22 -9 30 0 16 17 -16 18 -35z
m-2422 -162 c-2 -38 -3 -7 -3 67 0 74 1 105 3 68 2 -38 2 -98 0 -135z m29 14
c1 -95 4 -192 8 -217 3 -25 8 -67 11 -95 3 -27 13 -90 21 -139 8 -48 13 -90
11 -92 -5 -5 -37 164 -37 196 0 13 -8 24 -20 27 -16 4 -20 14 -20 44 0 22 3
39 8 39 4 0 6 96 4 212 -2 117 0 209 4 205 5 -5 9 -85 10 -180z m1658 167 c3
-8 2 -12 -4 -9 -6 3 -10 10 -10 16 0 14 7 11 14 -7z m-1707 -126 c-2 -24 -4
-5 -4 42 0 47 2 66 4 43 2 -24 2 -62 0 -85z m1000 100 c-3 -8 -6 -5 -6 6 -1
11 2 17 5 13 3 -3 4 -12 1 -19z m326 -20 c3 -13 8 -45 11 -73 l6 -50 -13 35
c-18 46 -28 110 -17 110 4 0 10 -10 13 -22z m1497 7 c10 6 25 -34 16 -42 -3
-4 -6 1 -6 10 0 10 -5 14 -15 11 -11 -5 -15 0 -14 17 0 13 3 18 6 11 2 -6 8
-10 13 -7z m-1793 -57 c-3 -8 -6 -5 -6 6 -1 11 2 17 5 13 3 -3 4 -12 1 -19z
m628 -28 c14 -27 23 -50 21 -50 -5 0 -40 59 -49 83 -13 35 3 16 28 -33z
m-1528 18 c-3 -8 -6 -5 -6 6 -1 11 2 17 5 13 3 -3 4 -12 1 -19z m1693 -2 c0
-3 -4 -8 -10 -11 -5 -3 -10 -1 -10 4 0 6 5 11 10 11 6 0 10 -2 10 -4z m349
-31 c11 -19 16 -35 11 -35 -5 0 -12 9 -15 20 -3 11 -11 20 -16 20 -5 0 -9 7
-9 15 0 23 6 18 29 -20z m-1132 -17 c-3 -7 -5 -2 -5 12 0 14 2 19 5 13 2 -7 2
-19 0 -25z m893 -113 c0 -6 -40 37 -102 108 -10 11 -15 24 -12 28 5 9 114
-122 114 -136z m800 95 c0 -5 -2 -10 -4 -10 -3 0 -8 5 -11 10 -3 6 -1 10 4 10
6 0 11 -4 11 -10z m117 -22 c-3 -7 -5 -2 -5 12 0 14 2 19 5 13 2 -7 2 -19 0
-25z m-2850 -15 c-3 -10 -5 -4 -5 12 0 17 2 24 5 18 2 -7 2 -21 0 -30z m2224
-16 l11 -22 -21 22 c-22 23 -28 39 -11 28 5 -3 15 -16 21 -28z m516 11 c-3 -8
-6 -5 -6 6 -1 11 2 17 5 13 3 -3 4 -12 1 -19z m-2257 -18 c0 -5 -4 -10 -10
-10 -5 0 -10 5 -10 10 0 6 5 10 10 10 6 0 10 -4 10 -10z m7349 -12 c28 -76 55
-287 45 -355 l-6 -43 -70 2 -70 2 5 46 c3 25 15 74 27 110 11 35 26 108 32
162 11 98 21 118 37 76z m-5989 -100 c0 -5 -10 -8 -22 -8 -17 0 -30 13 -50 53
-16 29 -28 56 -28 62 0 10 99 -96 100 -107z m460 68 c0 -5 -7 -1 -15 10 -8 10
-14 24 -14 29 0 6 6 1 14 -9 8 -11 15 -24 15 -30z m-2173 12 c-3 -8 -6 -5 -6
6 -1 11 2 17 5 13 3 -3 4 -12 1 -19z m983 14 c0 -9 102 -183 132 -225 20 -27
20 -29 2 -42 -11 -8 -22 -15 -26 -15 -6 0 -38 28 -38 34 0 2 -20 60 -45 129
-24 70 -40 127 -35 127 6 0 10 -4 10 -8z m1010 -2 c0 -5 -2 -10 -4 -10 -3 0
-8 5 -11 10 -3 6 -1 10 4 10 6 0 11 -4 11 -10z m152 -54 c7 -13 7 -16 -1 -12
-6 4 -18 22 -27 39 -14 30 -14 31 1 12 9 -11 21 -28 27 -39z m-4373 -50 c18
-28 40 -64 49 -81 8 -16 22 -35 30 -41 9 -6 13 -18 9 -27 -4 -10 -2 -16 5 -14
6 1 37 -35 67 -79 31 -45 76 -107 100 -138 47 -61 49 -87 3 -43 -28 27 -62 36
-62 17 0 -6 7 -13 16 -17 8 -3 13 -11 10 -18 -2 -6 -1 -17 3 -24 6 -9 12 -8
25 5 15 15 19 15 27 3 8 -12 10 -12 18 1 6 8 12 12 14 10 52 -67 77 -112 76
-136 -1 -21 -3 -24 -6 -9 -9 38 -26 42 -21 6 5 -31 4 -32 -9 -15 -8 10 -12 28
-9 38 8 31 -20 75 -44 69 -32 -8 -32 -17 3 -69 43 -66 78 -105 88 -98 5 3 9
-2 9 -10 0 -17 3 -21 77 -103 48 -54 63 -63 63 -39 0 8 7 16 15 20 21 8 19 20
-6 31 -12 6 -33 30 -47 53 -20 35 0 18 96 -79 66 -68 118 -127 115 -133 -3 -5
-1 -6 4 -3 6 4 17 -1 24 -10 8 -9 50 -46 94 -84 44 -37 100 -86 125 -109 25
-23 55 -49 67 -57 13 -8 20 -19 17 -24 -3 -5 1 -6 8 -4 8 3 23 -4 35 -15 12
-11 28 -20 35 -20 9 0 9 -3 -2 -10 -8 -5 -10 -10 -5 -11 6 -1 15 -2 20 -4 6
-1 15 -3 20 -4 6 0 26 -15 45 -31 19 -17 61 -45 94 -62 32 -18 53 -34 46 -36
-6 -2 -25 5 -41 17 -15 11 -33 21 -40 21 -6 0 -23 12 -36 26 -13 14 -30 23
-38 20 -9 -3 -12 0 -8 10 3 9 -2 15 -13 16 -11 0 -24 2 -30 2 -6 1 -24 16 -39
34 -19 23 -33 31 -46 27 -12 -4 -19 -2 -19 6 0 16 -76 90 -84 82 -3 -4 -6 -1
-6 5 0 7 -7 12 -16 12 -14 0 -15 -2 -3 -16 12 -15 11 -16 -11 -9 -30 9 -40 22
-40 54 0 13 -11 34 -25 47 -14 13 -25 28 -25 34 0 6 -5 8 -11 4 -6 -3 -15 0
-20 7 -8 12 -12 11 -23 -3 -15 -20 -26 -23 -26 -7 0 13 -25 39 -38 39 -6 0
-12 7 -16 15 -7 20 4 19 34 -5 57 -45 38 -15 -38 60 -45 44 -82 84 -82 89 0 5
-7 11 -15 15 -11 4 -15 -1 -15 -17 0 -18 -2 -19 -10 -7 -8 13 -10 12 -10 -2 0
-27 3 -33 17 -30 7 2 13 -2 13 -9 0 -15 51 -75 61 -72 5 2 6 -4 3 -12 -4 -10
0 -15 10 -15 15 0 42 -47 33 -56 -5 -5 -199 201 -232 246 -14 19 -49 60 -79
91 -30 31 -67 76 -82 100 -15 24 -33 49 -38 54 -6 6 -24 30 -40 55 -16 25 -40
57 -53 72 -14 14 -22 31 -18 37 3 7 1 10 -6 9 -17 -4 -81 103 -73 122 4 8 8
26 10 40 4 24 4 24 -7 -2 -6 -16 -14 -28 -17 -28 -10 1 -54 74 -91 151 -29 59
-32 73 -25 115 6 42 9 46 18 30 6 -10 26 -42 45 -70z m2420 39 c0 -5 -4 -3 -9
5 -5 8 -9 22 -9 30 0 16 17 -16 18 -35z m-305 -27 c4 -37 2 -58 -4 -58 -6 0
-10 27 -10 62 0 74 5 73 14 -4z m2633 0 c-3 -20 -4 -21 -11 -5 -5 9 -5 29 0
45 7 25 8 26 11 5 3 -13 3 -33 0 -45z m-2660 -45 c-3 -10 -5 -2 -5 17 0 19 2
27 5 18 2 -10 2 -26 0 -35z m373 24 c0 -13 4 -27 9 -32 12 -13 52 -166 41
-160 -4 3 -11 19 -14 37 -3 18 -17 60 -31 93 -27 66 -30 85 -15 85 6 0 10 -10
10 -23z m1029 -47 c24 -51 24 -50 11 -50 -5 0 -10 5 -10 11 0 5 -11 27 -25 47
-28 41 -35 74 -11 50 8 -8 23 -34 35 -58z m-877 38 c-7 -7 -12 -8 -12 -2 0 14
12 26 19 19 2 -3 -1 -11 -7 -17z m1802 6 c3 -8 2 -12 -4 -9 -6 3 -10 10 -10
16 0 14 7 11 14 -7z m-1865 -49 c0 -5 -4 -3 -9 5 -5 8 -9 22 -9 30 0 16 17
-16 18 -35z m1497 -12 c19 -14 34 -29 34 -34 0 -4 -16 -11 -35 -15 -19 -3 -38
-10 -41 -15 -3 -5 -10 -7 -15 -3 -9 5 -59 79 -59 87 0 1 19 3 41 4 31 2 50 -5
75 -24z m519 -111 c-7 -8 -54 34 -70 63 -15 25 -11 23 28 -15 25 -25 44 -47
42 -48z m-2006 18 c0 -10 -3 -8 -9 5 -12 27 -12 43 0 25 5 -8 9 -22 9 -30z
m2153 -37 c19 -8 17 -11 -26 -32 -27 -12 -51 -20 -54 -17 -3 3 8 24 24 47 19
28 30 37 32 27 2 -8 12 -20 24 -25z m-1674 -28 c-3 -3 -9 2 -12 12 -6 14 -5
15 5 6 7 -7 10 -15 7 -18z m-551 -7 c-3 -8 -6 -5 -6 6 -1 11 2 17 5 13 3 -3 4
-12 1 -19z m33 6 c0 -8 -4 -12 -10 -9 -5 3 -10 10 -10 16 0 5 5 9 10 9 6 0 10
-7 10 -16z m67 -6 c-3 -8 -6 -5 -6 6 -1 11 2 17 5 13 3 -3 4 -12 1 -19z m22
-11 c-8 -19 -6 -31 10 -61 12 -20 21 -43 21 -52 0 -8 5 -12 11 -9 6 4 9 1 8
-6 -2 -8 14 -47 35 -88 20 -40 35 -75 33 -77 -2 -3 -19 27 -38 66 -18 38 -37
70 -41 70 -4 0 -8 5 -8 11 0 6 -12 37 -26 69 -21 47 -24 62 -15 79 16 28 23
27 10 -2z m368 -9 c-3 -7 -5 -2 -5 12 0 14 2 19 5 13 2 -7 2 -19 0 -25z m30 0
c-3 -8 -6 -5 -6 6 -1 11 2 17 5 13 3 -3 4 -12 1 -19z m-497 -18 c0 -5 -4 -10
-10 -10 -5 0 -10 5 -10 10 0 6 5 10 10 10 6 0 10 -4 10 -10z m591 -37 c12 -27
23 -51 26 -55 2 -5 2 -8 0 -8 -7 0 -57 87 -57 99 0 22 10 10 31 -36z m-66 27
c3 -6 -1 -7 -9 -4 -18 7 -21 14 -7 14 6 0 13 -4 16 -10z m-2595 -9 c0 -5 41
-40 90 -77 50 -38 86 -70 80 -72 -8 -3 -7 -9 3 -21 8 -9 17 -32 20 -51 l5 -35
-15 38 c-9 20 -20 37 -24 37 -5 0 -9 9 -9 20 0 20 -8 24 -47 21 -14 -2 -30 10
-47 32 -14 19 -26 37 -26 41 0 4 -11 19 -25 34 -27 28 -31 42 -15 42 6 0 10
-4 10 -9z m2102 -20 c2 -17 1 -28 -4 -25 -8 5 -12 54 -4 54 2 0 6 -13 8 -29z
m2160 3 c-14 -9 -19 -20 -15 -32 6 -15 5 -15 -11 -3 -16 13 -15 16 11 37 15
12 30 20 32 18 3 -3 -5 -11 -17 -20z m-2535 -16 c-3 -8 -6 -5 -6 6 -1 11 2 17
5 13 3 -3 4 -12 1 -19z m1184 -23 c8 -16 6 -15 -10 4 -12 13 -21 28 -21 35 0
12 14 -5 31 -39z m-266 -15 c3 -5 1 -10 -4 -10 -6 0 -11 5 -11 10 0 6 2 10 4
10 3 0 8 -4 11 -10z m-798 -22 c-3 -8 -6 -5 -6 6 -1 11 2 17 5 13 3 -3 4 -12
1 -19z m5401 -33 c81 -120 92 -185 42 -253 -42 -59 -90 -80 -165 -75 -34 3
-78 0 -100 -6 -21 -6 -41 -9 -43 -6 -3 2 3 22 12 45 18 46 21 147 6 200 -12
40 -14 38 103 107 40 23 81 41 92 40 11 -1 34 -24 53 -52z m-5414 -30 c4 -34
3 -43 -3 -30 -9 19 -15 93 -7 84 2 -2 6 -26 10 -54z m310 -15 c4 -20 3 -30 -3
-25 -4 6 -11 30 -14 55 -7 49 6 28 17 -30z m537 37 l11 -22 -21 22 c-22 23
-28 39 -11 28 5 -3 15 -16 21 -28z m267 8 c-3 -3 -9 2 -12 12 -6 14 -5 15 5 6
7 -7 10 -15 7 -18z m-1164 -45 c4 -31 3 -40 -4 -30 -5 8 -10 30 -10 49 0 45 6
37 14 -19z m-1658 5 c-4 -17 -2 -25 6 -25 7 0 24 -19 38 -43 40 -67 36 -66
-24 7 -31 38 -54 71 -51 74 3 4 10 0 15 -8 8 -13 10 -12 10 3 0 9 3 17 6 17 3
0 3 -11 0 -25z m810 -3 c-6 -6 -56 10 -56 18 0 5 13 3 30 -3 16 -6 28 -13 26
-15z m-696 -30 c0 -9 -44 25 -48 37 -2 7 7 3 22 -10 14 -12 26 -25 26 -27z
m9173 29 c53 -23 77 -53 77 -99 0 -43 -23 -76 -73 -105 -34 -19 -59 -24 -126
-26 l-84 -2 7 33 c3 18 27 75 53 126 52 104 62 109 146 73z m-8478 -13 c45
-10 75 -16 91 -17 7 -1 22 -10 35 -20 l24 -20 -23 6 c-12 3 -25 9 -28 14 -3 5
-16 9 -30 9 -23 0 -91 18 -154 41 -20 7 -18 8 10 3 19 -3 53 -10 75 -16z
m-699 -45 c-6 -6 -36 9 -36 18 0 5 9 4 20 -3 10 -7 18 -14 16 -15z m94 -30
c30 -28 15 -30 -20 -3 -14 11 -31 20 -37 20 -7 0 -13 2 -13 4 0 2 -3 13 -7 23
-7 17 -5 17 22 -1 16 -11 41 -30 55 -43z m-448 11 c-8 -14 -9 -13 -9 10 0 18
3 24 9 18 7 -7 7 -16 0 -28z m2297 -34 c0 -23 -15 7 -22 45 l-6 30 14 -30 c8
-16 14 -37 14 -45z m-1014 35 c31 -9 41 -14 25 -14 -14 0 -43 6 -65 14 -51 18
-25 18 40 0z m112 9 c-3 -3 -12 -4 -19 -1 -8 3 -5 6 6 6 11 1 17 -2 13 -5z
m580 -36 c-3 -7 -5 -2 -5 12 0 14 2 19 5 13 2 -7 2 -19 0 -25z m-594 5 c-7 -2
-21 -2 -30 0 -10 3 -4 5 12 5 17 0 24 -2 18 -5z m1057 -14 c0 -6 -4 -7 -10 -4
-5 3 -10 11 -10 16 0 6 5 7 10 4 6 -3 10 -11 10 -16z m-2321 -34 c18 -25 28
-45 22 -45 -10 0 -61 68 -61 82 0 14 6 8 39 -37z m404 14 c16 -1 -24 -18 -43
-18 -10 0 -8 3 4 8 14 5 16 10 8 15 -7 4 -12 12 -12 17 0 6 7 3 16 -5 8 -9 21
-16 27 -17z m1412 21 c3 -5 -1 -10 -10 -10 -9 0 -13 5 -10 10 3 6 8 10 10 10
2 0 7 -4 10 -10z m-422 -7 c-7 -2 -21 -2 -30 0 -10 3 -4 5 12 5 17 0 24 -2 18
-5z m474 -35 c-3 -7 -5 -2 -5 12 0 14 2 19 5 13 2 -7 2 -19 0 -25z m-1597 -13
c18 -13 46 -39 61 -57 16 -18 28 -30 29 -26 0 4 21 -13 47 -37 26 -25 53 -45
60 -45 7 0 22 -13 34 -29 14 -19 27 -27 37 -23 11 4 13 2 7 -8 -6 -10 -1 -12
21 -7 16 3 23 4 17 1 -19 -8 -16 -24 5 -24 10 0 35 -16 56 -35 39 -35 56 -43
56 -25 0 5 13 1 30 -8 16 -9 30 -21 30 -25 0 -5 -10 -1 -22 7 -39 27 -44 17
-8 -13 23 -19 42 -28 54 -24 13 4 16 1 11 -7 -6 -10 -2 -11 16 -7 13 3 31 2
39 -4 11 -8 9 -9 -10 -3 -22 6 -23 5 -11 -10 7 -9 19 -16 25 -16 18 0 66 -24
66 -33 0 -5 10 -5 23 -2 18 5 19 4 7 -5 -12 -10 -11 -11 8 -7 12 3 20 1 16 -4
-3 -5 2 -9 11 -9 11 0 15 5 12 14 -4 10 -1 13 9 9 11 -4 12 -8 3 -19 -7 -8
-10 -16 -8 -17 35 -22 98 -49 156 -66 39 -12 78 -29 85 -38 11 -14 11 -15 -7
-5 -11 6 -56 23 -99 38 -133 46 -500 243 -541 290 -5 6 -26 20 -45 32 -20 12
-45 29 -57 39 -12 10 -36 29 -54 43 -17 14 -39 33 -48 43 -8 9 -20 17 -27 17
-6 0 -27 17 -46 38 -19 20 -50 49 -68 65 -42 34 -26 36 20 2z m2635 7 c-3 -3
-11 0 -18 7 -9 10 -8 11 6 5 10 -3 15 -9 12 -12z m-2950 -1 c3 -5 1 -12 -5
-16 -5 -3 -10 1 -10 9 0 18 6 21 15 7z m385 -11 c0 -5 -2 -10 -4 -10 -3 0 -8
5 -11 10 -3 6 -1 10 4 10 6 0 11 -4 11 -10z m154 -15 c16 -14 33 -25 37 -25 5
0 49 -24 99 -52 50 -29 108 -62 130 -73 l39 -20 -24 -11 c-22 -11 -28 -8 -56
23 -30 35 -98 76 -145 87 -13 4 -24 10 -24 15 0 10 -91 67 -102 63 -5 -1 -8 3
-8 8 0 17 24 11 54 -15z m2629 0 c23 -32 17 -32 -13 0 -13 14 -19 25 -14 25 5
0 17 -12 27 -25z m-1246 -7 c-3 -8 -6 -5 -6 6 -1 11 2 17 5 13 3 -3 4 -12 1
-19z m-1390 -24 c-6 -6 -47 9 -47 17 0 5 11 3 25 -3 14 -6 24 -13 22 -14z
m-492 -4 c3 -6 -1 -7 -9 -4 -18 7 -21 14 -7 14 6 0 13 -4 16 -10z m37 -27 c-2
-16 -2 -25 2 -22 9 9 56 -33 49 -44 -3 -4 -13 2 -24 14 -10 12 -19 19 -19 15
0 -4 -7 -1 -15 8 -17 17 -20 46 -4 46 5 0 7 5 3 12 -4 6 -3 8 3 5 6 -4 8 -19
5 -34z m2378 -17 c0 -6 -7 -1 -15 10 -8 10 -15 23 -15 28 0 6 7 1 15 -10 8
-10 15 -23 15 -28z m-2000 24 c0 -5 7 -10 15 -10 8 0 15 -4 15 -10 0 -16 -15
-12 -35 10 -10 11 -13 20 -7 20 7 0 12 -4 12 -10z m2796 -38 c15 -23 15 -25 1
-14 -9 8 -22 10 -28 6 -8 -4 -9 -3 -5 5 4 6 2 19 -5 27 -10 12 -9 13 4 8 9 -3
24 -18 33 -32z m-2586 -14 c12 -8 11 -8 -3 -4 -10 3 -32 6 -48 6 -16 0 -29 5
-29 11 0 12 55 3 80 -13z m2210 7 c11 -13 10 -14 -4 -9 -9 3 -16 10 -16 15 0
13 6 11 20 -6z m-396 -11 c3 -8 2 -12 -4 -9 -6 3 -10 10 -10 16 0 14 7 11 14
-7z m-612 -57 c69 -36 85 -49 95 -78 7 -19 46 -126 88 -239 42 -113 79 -213
82 -223 5 -17 1 -16 -43 6 -27 13 -66 27 -86 31 -32 6 -41 3 -69 -22 -30 -26
-33 -36 -37 -96 -3 -38 0 -66 5 -66 5 0 11 28 12 63 4 114 46 134 166 75 64
-32 65 -33 92 -103 15 -38 34 -80 41 -93 23 -35 9 -35 -39 0 -44 33 -44 33
-166 34 -68 0 -120 -3 -117 -8 3 -5 41 -6 84 -2 105 9 168 -11 237 -74 43 -40
61 -68 118 -195 37 -81 65 -150 62 -153 -8 -8 -69 20 -102 48 -44 37 -245 146
-339 183 -139 56 -288 121 -352 153 -112 57 -139 138 -131 397 5 173 14 221
55 301 39 77 85 102 189 103 67 1 79 -2 155 -42z m1456 10 c12 -13 19 -27 15
-30 -3 -4 -1 -7 5 -7 6 0 42 -23 79 -51 40 -30 58 -48 43 -44 -14 4 -32 13
-40 20 -8 7 -33 18 -55 24 -22 6 -51 18 -65 27 -25 15 -24 15 15 9 39 -5 39
-5 15 9 -14 9 -19 15 -12 16 7 0 10 5 7 11 -4 6 -14 8 -22 5 -8 -4 -11 -2 -7
5 4 6 0 15 -7 20 -8 5 -9 9 -3 9 6 0 20 -10 32 -23z m-1333 -45 c-5 -14 -7
-14 -15 -2 -6 8 -9 22 -9 30 0 10 3 8 9 -5 8 -18 9 -18 10 5 2 18 4 20 7 7 3
-10 2 -26 -2 -35z m-1115 7 c0 -5 -4 -7 -10 -4 -6 4 -10 -5 -10 -20 0 -27 -15
-48 -38 -52 -8 -2 -12 11 -12 38 0 33 3 40 16 35 8 -3 12 -2 9 4 -3 6 5 10 19
10 14 0 26 -5 26 -11z m25 1 c3 -5 1 -10 -4 -10 -6 0 -11 5 -11 10 0 6 2 10 4
10 3 0 8 -4 11 -10z m1660 0 c-3 -5 -12 -10 -18 -10 -7 0 -6 4 3 10 19 12 23
12 15 0z m6543 -67 c63 -85 133 -152 195 -187 52 -30 57 -26 27 19 -37 55
-106 222 -96 232 5 6 109 -62 150 -97 28 -25 37 -44 50 -103 10 -39 26 -109
37 -154 10 -45 19 -85 19 -89 0 -3 -30 22 -67 55 -72 66 -166 132 -251 175
-71 36 -156 44 -245 21 -38 -9 -70 -15 -73 -13 -2 3 22 40 55 84 53 73 109
123 137 124 6 0 34 -30 62 -67z m-8156 14 c-4 -15 -7 -17 -10 -7 -3 8 -9 20
-14 27 -6 8 -4 10 10 6 14 -3 18 -11 14 -26z m1055 -4 c1 -34 0 -35 -8 -14 -9
22 -6 51 4 51 2 0 3 -17 4 -37z m-1110 5 c-3 -8 -6 -5 -6 6 -1 11 2 17 5 13 3
-3 4 -12 1 -19z m2228 -26 c39 -44 39 -45 7 -22 -32 24 -70 71 -55 69 5 0 26
-22 48 -47z m-2121 23 c11 -8 16 -15 10 -15 -5 0 -18 7 -28 15 -11 8 -16 15
-10 15 5 0 18 -7 28 -15z m1601 5 c3 -5 1 -10 -4 -10 -6 0 -11 5 -11 10 0 6 2
10 4 10 3 0 8 -4 11 -10z m-1548 -26 c-3 -3 -12 -4 -19 -1 -8 3 -5 6 6 6 11 1
17 -2 13 -5z m1583 -9 c19 -23 8 -25 -14 -4 -11 11 -15 19 -9 19 6 0 16 -7 23
-15z m-1835 -5 c8 -13 -5 -13 -25 0 -13 8 -13 10 2 10 9 0 20 -4 23 -10z m285
2 c0 -7 40 -27 100 -49 19 -6 27 -12 18 -13 -23 0 -123 44 -132 59 -4 6 -2 11
3 11 6 0 11 -3 11 -8z m946 -39 c3 -16 9 -38 14 -50 6 -14 6 -23 0 -23 -5 0
-12 17 -16 38 -4 20 -11 43 -17 50 -6 8 -6 12 2 12 6 0 13 -12 17 -27z m649
-3 c3 -5 1 -10 -4 -10 -6 0 -11 5 -11 10 0 6 2 10 4 10 3 0 8 -4 11 -10z
m-1430 -30 c3 -6 -1 -7 -9 -4 -18 7 -21 14 -7 14 6 0 13 -4 16 -10z m1476 -17
c13 -16 12 -17 -3 -4 -10 7 -18 15 -18 17 0 8 8 3 21 -13z m-1776 -3 c-28 -12
-37 -12 -30 0 3 6 16 10 28 9 21 0 21 -1 2 -9z m-480 -150 c17 -14 18 -13 12
3 -4 9 -2 17 4 17 7 0 9 -10 6 -22 -5 -18 0 -26 20 -35 19 -9 29 -10 34 -2 4
7 12 3 23 -12 12 -18 13 -25 3 -32 -7 -6 -5 -6 8 -2 33 12 58 11 63 -4 3 -10
-2 -12 -22 -7 -33 8 -34 -7 -1 -22 14 -6 25 -16 25 -22 0 -14 -78 31 -129 76
-94 82 -210 198 -205 206 3 5 36 -22 73 -59 37 -38 76 -75 86 -83z m492 124
c-3 -3 -12 -4 -19 -1 -8 3 -5 6 6 6 11 1 17 -2 13 -5z m1828 -20 c17 -14 21
-21 10 -16 -30 16 -61 41 -50 41 6 0 24 -11 40 -25z m-1440 6 c-3 -5 -15 -10
-26 -10 -11 0 -17 5 -14 10 3 6 15 10 26 10 11 0 17 -4 14 -10z m60 -18 c-6
-7 -45 9 -45 18 0 4 11 3 24 -3 14 -7 23 -13 21 -15z m1736 1 c13 -16 12 -17
-3 -4 -10 7 -18 15 -18 17 0 8 8 3 21 -13z m-1062 -73 c0 -15 -28 48 -28 65 0
11 6 2 14 -20 8 -22 15 -42 14 -45z m-1642 58 c3 6 9 12 15 12 6 0 6 -6 -2
-15 -16 -20 -36 -19 -44 1 -6 15 -4 15 10 3 13 -11 18 -11 21 -1z m1002 -88
l-3 -99 -25 6 c-15 3 -44 12 -66 19 l-40 14 42 -5 c23 -3 48 -8 57 -11 13 -5
14 4 10 62 -5 74 -10 87 -27 78 -7 -3 -1 4 12 15 13 12 28 21 33 21 5 0 8 -41
7 -100z m1401 80 c0 -5 -2 -10 -4 -10 -3 0 -8 5 -11 10 -3 6 -1 10 4 10 6 0
11 -4 11 -10z m330 -10 c0 -5 -2 -10 -4 -10 -3 0 -8 5 -11 10 -3 6 -1 10 4 10
6 0 11 -4 11 -10z m-2700 -14 c0 -3 -4 -8 -10 -11 -5 -3 -10 -1 -10 4 0 6 5
11 10 11 6 0 10 -2 10 -4z m2518 -56 c5 0 15 -7 22 -15 14 -17 16 -17 -62 18
-20 9 -39 21 -42 26 -4 5 12 1 33 -10 22 -10 44 -19 49 -19z m-2453 0 c3 -5 1
-10 -4 -10 -6 0 -11 5 -11 10 0 6 2 10 4 10 3 0 8 -4 11 -10z m1572 -22 c-3
-8 -6 -5 -6 6 -1 11 2 17 5 13 3 -3 4 -12 1 -19z m1157 2 c7 0 27 -16 46 -35
19 -19 39 -35 46 -35 17 0 37 -27 25 -34 -5 -4 -28 11 -49 33 -22 22 -43 37
-47 33 -5 -4 -5 -1 -1 6 5 8 -2 16 -18 22 -14 5 -26 15 -25 22 0 10 2 10 6 1
2 -7 10 -13 17 -13z m-2654 -20 c0 -5 -4 -10 -10 -10 -5 0 -10 5 -10 10 0 6 5
10 10 10 6 0 10 -4 10 -10z m60 -20 c0 -5 -2 -10 -4 -10 -3 0 -8 5 -11 10 -3
6 -1 10 4 10 6 0 11 -4 11 -10z m2502 -26 c15 -8 30 -14 33 -14 31 1 44 -2 61
-15 17 -12 13 -12 -31 -1 -27 8 -70 23 -95 35 -25 12 -34 18 -20 15 14 -4 37
-13 52 -20z m129 -1 c13 -16 12 -17 -3 -4 -10 7 -18 15 -18 17 0 8 8 3 21 -13z
m-1158 -35 c10 -16 14 -28 9 -28 -8 0 -32 43 -32 57 0 7 1 6 23 -29z m-1393 3
c0 -5 -7 -12 -16 -15 -14 -5 -15 -4 -4 9 14 17 20 19 20 6z m2662 -10 c2 -5
19 -18 38 -30 28 -17 31 -21 14 -21 -19 0 -83 18 -93 26 -5 5 20 34 29 34 5 0
10 -4 12 -9z m-52 -17 c0 -2 -9 -4 -20 -4 -11 0 -20 4 -20 9 0 5 9 7 20 4 11
-3 20 -7 20 -9z m-2673 0 c-3 -3 -12 -4 -19 -1 -8 3 -5 6 6 6 11 1 17 -2 13
-5z m33 -14 c0 -5 -4 -10 -10 -10 -5 0 -10 5 -10 10 0 6 5 10 10 10 6 0 10 -4
10 -10z m55 -22 c14 -6 25 -15 25 -20 0 -7 -55 15 -69 28 -9 9 20 3 44 -8z
m8570 -30 c30 -31 51 -66 74 -127 17 -46 30 -88 29 -93 -2 -5 -19 12 -38 39
-19 26 -63 77 -97 112 -35 36 -63 67 -63 70 0 9 33 41 43 41 5 0 29 -19 52
-42z m-8444 -38 c34 -15 37 -18 14 -13 -16 3 -48 15 -70 25 -28 13 -32 17 -14
13 15 -2 46 -14 70 -25z m119 -17 c0 -4 -34 9 -46 18 -6 5 -14 6 -17 2 -4 -3
-7 -2 -7 4 0 21 13 21 41 1 16 -12 29 -23 29 -25z m8301 -57 c46 -50 84 -98
137 -175 36 -52 52 -226 52 -571 0 -276 -1 -287 -25 -363 -14 -43 -34 -95 -45
-117 -11 -22 -20 -44 -20 -49 0 -14 -97 -214 -153 -316 -86 -157 -100 -181
-143 -245 -44 -66 -122 -151 -230 -250 -76 -70 -91 -81 -189 -150 -135 -94
-286 -183 -475 -280 -36 -19 -81 -44 -100 -55 -37 -23 -322 -159 -490 -233
-25 -11 -67 -30 -95 -42 -378 -171 -468 -212 -496 -229 -19 -12 -39 -21 -45
-21 -11 0 -100 -41 -374 -172 -58 -28 -143 -68 -190 -90 -179 -84 -466 -225
-755 -370 -165 -83 -363 -179 -440 -215 -77 -36 -309 -148 -515 -250 -206
-102 -494 -244 -640 -316 -146 -71 -308 -151 -360 -177 -52 -27 -113 -53 -135
-58 -22 -6 -127 -13 -233 -17 -106 -4 -207 -11 -224 -15 -18 -6 -49 -5 -78 1
-39 8 -49 15 -54 36 -9 33 -10 508 -1 603 11 133 55 518 64 567 5 27 12 86 15
133 24 317 79 596 176 890 75 229 221 510 363 700 22 30 56 75 75 100 135 181
343 332 527 385 97 28 150 17 245 -49 43 -31 104 -68 135 -82 54 -26 70 -44
39 -44 -15 0 -136 -61 -274 -140 -41 -23 -93 -52 -114 -64 -74 -40 -169 -139
-214 -222 -79 -145 -161 -397 -243 -749 -34 -147 -41 -164 -115 -310 -69 -136
-113 -249 -101 -261 9 -10 55 30 90 78 63 86 81 115 125 202 66 132 145 268
221 378 36 54 75 113 86 131 47 78 226 308 390 502 55 66 122 147 147 180 26
33 67 83 92 110 25 28 46 54 46 58 0 13 209 219 268 265 82 64 120 60 277 -29
58 -33 65 -34 192 -39 125 -5 170 -16 149 -37 -4 -5 -62 -9 -129 -9 -185 -2
-280 -39 -457 -174 -89 -69 -208 -189 -277 -281 -131 -174 -304 -483 -412
-739 -18 -41 -41 -95 -51 -120 -51 -119 -91 -231 -85 -241 10 -16 33 8 40 42
14 65 24 34 24 -74 0 -125 6 -163 29 -189 36 -42 95 -8 212 122 41 46 93 103
115 126 22 23 51 55 64 71 13 15 50 57 81 93 128 148 319 392 356 457 25 42
78 125 209 328 18 28 56 95 85 150 30 55 57 102 60 105 13 9 90 193 90 214 0
28 31 77 66 105 16 13 76 56 134 97 58 40 110 77 115 82 6 4 37 23 71 41 l61
34 74 -56 c78 -59 115 -77 154 -77 21 0 248 85 298 111 10 6 55 23 100 40 45
16 97 36 114 45 18 8 63 26 100 40 38 13 77 29 88 33 23 11 265 101 345 129
30 11 100 36 155 56 55 20 110 36 122 36 12 0 24 4 27 9 4 5 25 12 49 16 23 4
57 14 76 21 19 8 57 18 85 23 28 5 78 16 111 24 118 30 201 47 276 56 42 5 91
16 110 24 55 25 123 37 201 37 113 0 191 -27 351 -119 94 -54 205 -108 233
-113 12 -2 19 3 19 12 0 9 10 25 23 38 12 12 23 27 23 32 1 6 2 16 3 23 1 6 9
11 18 9 41 -7 21 21 -65 90 -109 88 -291 226 -330 251 l-27 18 76 87 c152 173
305 358 330 401 17 30 19 30 42 15 14 -9 46 -40 73 -68z m-8245 27 c-6 -6 -36
9 -36 18 0 5 9 4 20 -3 10 -7 18 -14 16 -15z m19 -17 c54 -13 135 -46 110 -46
-5 1 -53 14 -105 30 -101 31 -104 39 -5 16z m1185 -141 c0 -5 -9 5 -20 23 -26
42 -26 56 0 17 11 -16 20 -34 20 -40z m30 -55 c0 -5 -2 -10 -4 -10 -3 0 -8 5
-11 10 -3 6 -1 10 4 10 6 0 11 -4 11 -10z m450 -85 c0 -5 -5 -3 -10 5 -5 8
-10 20 -10 25 0 6 5 3 10 -5 5 -8 10 -19 10 -25z m-370 -95 c0 -5 6 -15 13
-22 13 -13 40 -78 32 -78 -4 0 -85 159 -85 168 0 4 9 -8 20 -26 11 -18 20 -37
20 -42z m-85 -70 c10 -11 35 -23 56 -26 29 -5 44 -15 64 -45 33 -47 40 -75 64
-264 26 -201 35 -347 26 -439 -8 -86 -9 -87 -88 -60 -26 9 -58 30 -73 47 -34
40 -69 119 -79 175 -16 96 -58 9 -59 -123 -1 -113 14 -165 65 -220 100 -109
244 -103 321 14 32 47 78 174 101 278 l23 102 287 -283 c255 -252 313 -314
276 -291 -17 11 -584 -34 -714 -56 -33 -5 -105 -16 -160 -24 -55 -8 -145 -21
-200 -30 -55 -9 -127 -20 -160 -25 -33 -5 -84 -14 -114 -20 -29 -5 -64 -10
-77 -10 l-24 0 -1 138 c0 75 -4 159 -8 186 -7 42 -6 49 10 53 27 7 33 75 15
169 -8 45 -16 85 -18 90 -3 9 4 14 21 14 5 0 23 -12 40 -26 34 -28 38 -21 17
28 -8 18 -21 49 -30 70 -23 52 -18 74 9 50 6 -5 42 -17 80 -27 39 -10 78 -25
88 -33 36 -32 27 -1 -20 62 -75 102 -84 115 -81 122 2 4 36 6 76 5 42 -1 72 2
72 8 0 5 -33 39 -72 75 -40 36 -70 67 -68 70 3 3 44 16 90 30 163 47 176 59
78 71 l-63 8 40 9 c22 5 50 11 63 14 31 6 28 19 -9 35 l-31 12 54 28 c30 15
60 35 67 43 17 21 24 20 46 -4z m5579 -279 c21 -65 17 -81 -21 -81 -25 0 -26
2 -19 46 3 26 6 57 6 70 0 41 14 26 34 -35z m-7437 -93 c50 -37 94 -68 97 -68
2 0 33 -19 67 -41 58 -39 61 -43 44 -55 -22 -17 -12 -19 13 -3 14 9 31 3 89
-30 40 -23 77 -41 83 -41 5 0 10 -4 10 -10 0 -14 -12 -13 -49 6 -23 12 -45 14
-79 10 -29 -4 -42 -3 -34 2 11 7 10 10 -3 15 -9 4 -13 3 -10 -2 8 -14 -27 -31
-45 -22 -8 5 -69 2 -135 -4 l-120 -13 -63 66 c-49 50 -66 62 -72 52 -5 -8 -13
-11 -17 -6 -4 5 -2 11 5 13 24 9 12 21 -28 27 -25 4 -49 16 -62 31 -12 14 -30
25 -41 25 -10 0 -32 9 -48 21 -24 17 -27 24 -19 40 6 10 21 19 33 19 18 0 20
2 7 11 -13 9 -12 10 2 5 9 -3 38 2 63 10 26 9 68 14 100 12 46 -2 55 0 55 14
0 15 2 15 33 0 17 -9 73 -46 124 -84z m-450 -10 c-3 -8 -6 -5 -6 6 -1 11 2 17
5 13 3 -3 4 -12 1 -19z m5771 -56 c51 -64 88 -141 131 -271 23 -68 41 -129 41
-135 0 -7 -24 -28 -52 -48 -184 -123 -202 -132 -211 -105 -3 9 -36 12 -125 11
-95 0 -122 3 -122 13 0 7 5 13 11 13 6 0 8 7 5 16 -9 23 34 60 108 95 34 16
66 29 71 29 6 0 26 14 45 30 33 27 35 32 34 87 -1 52 -12 142 -30 244 -5 34
-3 38 23 47 40 15 38 16 71 -26z m-3231 -14 c-3 -7 -5 -2 -5 12 0 14 2 19 5
13 2 -7 2 -19 0 -25z m267 -134 c3 -8 2 -12 -4 -9 -6 3 -10 10 -10 16 0 14 7
11 14 -7z m-1919 -54 c3 -6 -1 -7 -9 -4 -18 7 -21 14 -7 14 6 0 13 -4 16 -10z
m2019 -46 c7 -19 2 -18 -19 6 -16 17 -16 20 -3 15 9 -4 19 -13 22 -21z m-347
-76 c-2 -13 -4 -5 -4 17 -1 22 1 32 4 23 2 -10 2 -28 0 -40z m901 12 c-2 -7
-10 1 -17 16 -12 27 -11 28 4 12 10 -9 16 -21 13 -28z m40 -56 c-4 -3 -12 5
-18 18 -12 22 -12 22 6 6 10 -10 15 -20 12 -24z m-398 -79 c19 -19 32 -35 29
-35 -3 0 -20 16 -39 35 -19 19 -32 35 -29 35 3 0 20 -16 39 -35z m480 5 c0 -5
-2 -10 -4 -10 -3 0 -8 5 -11 10 -3 6 -1 10 4 10 6 0 11 -4 11 -10z m-1080
-110 c-8 -5 -17 -7 -19 -4 -3 3 1 9 9 14 8 5 17 7 19 4 3 -3 -1 -9 -9 -14z
m1284 -130 c-6 -5 -24 21 -24 34 0 6 6 1 14 -10 8 -10 12 -21 10 -24z m5891
-54 c4 -24 4 -59 0 -78 -9 -46 -46 -161 -55 -173 -5 -5 -13 -26 -19 -45 -10
-32 -10 -31 -6 20 3 30 15 115 27 188 23 140 41 170 53 88z m-5978 -85 c-34
-43 -69 -88 -77 -100 -8 -13 -37 -52 -63 -89 -105 -145 -270 -474 -327 -652
-93 -291 -146 -548 -170 -830 -6 -69 -20 -188 -30 -265 -42 -309 -69 -681 -64
-884 1 -65 -1 -77 -20 -92 -30 -25 -75 -32 -100 -15 -12 7 -36 16 -53 20 -28
6 -32 12 -38 49 -4 23 -23 103 -42 177 -19 74 -41 173 -49 220 -8 47 -21 124
-29 171 -24 143 -37 446 -30 678 6 192 10 221 31 278 28 75 33 173 9 193 -22
18 -166 8 -199 -14 -46 -30 -37 -109 65 -546 23 -96 45 -183 50 -192 5 -9 16
-94 24 -190 9 -95 22 -218 31 -273 18 -119 127 -589 149 -646 5 -14 -2 -13
-42 7 -88 43 -141 30 -280 -71 -82 -60 -88 -61 -458 -130 -49 -9 -108 -20
-130 -25 -22 -5 -80 -17 -130 -26 -49 -8 -169 -31 -265 -49 -288 -56 -537
-103 -685 -130 -77 -14 -171 -32 -210 -40 -109 -22 -326 -62 -367 -68 -36 -5
-37 -5 -42 31 -3 20 -8 98 -12 173 -7 163 -5 179 74 449 29 102 113 315 184
470 17 36 45 99 63 140 92 212 378 791 432 874 39 60 47 83 60 160 20 128 32
148 106 184 34 16 87 38 117 47 62 20 132 54 182 88 25 17 51 23 97 25 l63 3
-20 -33 c-34 -54 -102 -129 -172 -190 -72 -63 -164 -128 -180 -128 -5 0 -10
-4 -10 -10 0 -5 -17 -10 -37 -10 -42 0 -35 -11 15 -28 43 -15 130 7 222 54 86
44 134 67 255 119 94 41 181 81 385 177 47 22 123 59 170 80 47 22 141 67 209
99 68 33 127 59 131 59 5 0 10 4 12 8 2 5 28 20 58 35 30 14 66 33 80 41 14 9
50 27 80 41 76 34 146 75 275 159 192 127 436 284 490 316 22 13 42 28 43 32
2 4 12 8 22 8 11 0 23 7 27 14 6 12 170 126 180 126 2 0 -25 -35 -60 -79z
m-1138 -66 c89 -94 93 -105 65 -185 -22 -63 -78 -178 -122 -250 -20 -34 -44
-73 -53 -88 -12 -20 -31 -31 -80 -45 -104 -28 -409 -109 -474 -124 -33 -8
-123 -32 -200 -53 -206 -56 -253 -66 -267 -52 -13 13 -1 110 27 227 59 253
119 493 126 505 5 11 47 23 131 39 68 12 141 26 163 31 53 12 128 25 255 44
58 9 130 20 160 25 30 5 85 9 121 10 l66 1 82 -85z m1001 65 c0 -5 -7 -10 -16
-10 -8 0 -12 5 -9 10 3 6 10 10 16 10 5 0 9 -4 9 -10z m6104 -204 c16 -33 15
-37 -14 -113 -44 -113 -93 -212 -105 -209 -5 1 -14 19 -19 38 -8 32 -4 46 36
125 25 48 51 106 57 128 7 22 14 46 16 53 6 19 11 15 29 -22z m-6696 -2801
l-3 -48 -27 38 -27 38 22 18 c29 24 39 11 35 -46z m1941 -199 c7 -24 11 -61 9
-82 -3 -33 -5 -27 -19 44 -17 88 -12 110 10 38z"/>
<path d="M4220 8075 c0 -5 5 -17 10 -25 5 -8 10 -10 10 -5 0 6 -5 17 -10 25
-5 8 -10 11 -10 5z"/>
<path d="M3902 7980 c0 -14 2 -19 5 -12 2 6 2 18 0 25 -3 6 -5 1 -5 -13z"/>
<path d="M4070 7996 c0 -2 7 -9 15 -16 13 -11 14 -10 9 4 -5 14 -24 23 -24 12z"/>
<path d="M4297 7973 c-4 -3 -7 -11 -7 -17 0 -6 5 -5 12 2 6 6 9 14 7 17 -3 3
-9 2 -12 -2z"/>
<path d="M4012 7945 c0 -16 2 -22 5 -12 2 9 2 23 0 30 -3 6 -5 -1 -5 -18z"/>
<path d="M4050 7955 c0 -8 4 -15 10 -15 5 0 7 7 4 15 -4 8 -8 15 -10 15 -2 0
-4 -7 -4 -15z"/>
<path d="M4505 7960 c-3 -5 -1 -10 4 -10 6 0 11 5 11 10 0 6 -2 10 -4 10 -3 0
-8 -4 -11 -10z"/>
<path d="M4089 7959 c-13 -43 -12 -103 4 -140 14 -32 14 -30 9 51 -4 74 -9
104 -13 89z"/>
<path d="M5000 7914 c0 -8 5 -12 10 -9 6 4 8 11 5 16 -9 14 -15 11 -15 -7z"/>
<path d="M3911 7904 c0 -11 3 -14 6 -6 3 7 2 16 -1 19 -3 4 -6 -2 -5 -13z"/>
<path d="M4177 7900 c7 -25 23 -37 23 -17 0 8 -6 20 -14 26 -12 10 -13 8 -9
-9z"/>
<path d="M4381 7904 c0 -11 3 -14 6 -6 3 7 2 16 -1 19 -3 4 -6 -2 -5 -13z"/>
<path d="M4342 7888 c2 -6 10 -14 16 -16 7 -2 10 2 6 12 -7 18 -28 22 -22 4z"/>
<path d="M4520 7890 c0 -5 5 -10 10 -10 6 0 10 5 10 10 0 6 -4 10 -10 10 -5 0
-10 -4 -10 -10z"/>
<path d="M4900 7880 c0 -5 5 -10 11 -10 5 0 7 5 4 10 -3 6 -8 10 -11 10 -2 0
-4 -4 -4 -10z"/>
<path d="M4478 7830 c5 -13 4 -13 -13 0 -17 14 -18 14 -6 -7 14 -28 31 -30 31
-4 0 11 6 21 13 24 6 3 2 4 -9 4 -15 -1 -20 -6 -16 -17z"/>
<path d="M4010 7825 c0 -8 2 -15 4 -15 2 0 6 7 10 15 3 8 1 15 -4 15 -6 0 -10
-7 -10 -15z"/>
<path d="M4510 7817 c0 -19 33 -40 45 -29 5 4 5 -1 2 -10 -4 -12 -2 -15 9 -11
7 3 14 2 14 -1 0 -4 -9 -10 -21 -14 -19 -7 -19 -9 -5 -21 13 -11 16 -11 16 2
0 8 7 18 16 21 13 5 10 10 -13 29 -64 51 -63 51 -63 34z"/>
<path d="M3911 7804 c0 -11 3 -14 6 -6 3 7 2 16 -1 19 -3 4 -6 -2 -5 -13z"/>
<path d="M4395 7810 c3 -5 8 -10 11 -10 2 0 4 5 4 10 0 6 -5 10 -11 10 -5 0
-7 -4 -4 -10z"/>
<path d="M4420 7806 c0 -8 5 -18 10 -21 6 -3 10 1 10 9 0 8 -4 18 -10 21 -5 3
-10 -1 -10 -9z"/>
<path d="M4780 7805 c7 -9 15 -13 17 -11 7 7 -7 26 -19 26 -6 0 -6 -6 2 -15z"/>
<path d="M4001 7784 c0 -11 3 -14 6 -6 3 7 2 16 -1 19 -3 4 -6 -2 -5 -13z"/>
<path d="M4710 7783 c1 -12 50 -46 50 -35 0 6 -11 17 -25 26 -14 9 -25 13 -25
9z"/>
<path d="M4458 7764 c-4 -5 0 -18 8 -29 15 -20 17 -12 5 19 -4 11 -10 15 -13
10z"/>
<path d="M3846 7715 c8 -37 14 -45 14 -19 0 10 -5 26 -10 34 -8 11 -9 7 -4
-15z"/>
<path d="M4496 7732 c-10 -17 42 -48 57 -33 8 8 6 11 -7 11 -11 0 -24 7 -31
17 -8 11 -14 12 -19 5z"/>
<path d="M4802 7680 c23 -27 43 -48 44 -47 1 1 0 13 -3 27 -4 21 -59 70 -78
70 -4 0 13 -22 37 -50z"/>
<path d="M4950 7700 c19 -13 30 -13 30 0 0 6 -10 10 -22 10 -19 0 -20 -2 -8
-10z"/>
<path d="M3393 7655 c0 -22 2 -30 4 -17 2 12 2 30 0 40 -3 9 -5 -1 -4 -23z"/>
<path d="M3253 7570 c-1 -54 1 -65 6 -40 4 20 11 41 15 48 4 7 3 12 -3 12 -5
0 -12 12 -14 28 -2 15 -4 -7 -4 -48z"/>
<path d="M3331 7568 c4 -47 -5 -65 -14 -30 -3 12 -5 13 -6 2 0 -8 4 -22 9 -30
16 -24 31 7 25 54 -6 56 -18 59 -14 4z"/>
<path d="M3203 7560 c0 -25 2 -35 4 -22 2 12 2 32 0 45 -2 12 -4 2 -4 -23z"/>
<path d="M3396 7540 c8 -101 15 -143 25 -160 7 -10 8 -3 4 25 -4 30 -3 36 5
25 8 -11 9 -8 4 15 -4 17 -11 34 -15 40 -5 5 -9 23 -10 40 -1 16 -5 41 -10 55
-5 17 -7 3 -3 -40z"/>
<path d="M3421 7563 c-1 -23 3 -44 7 -47 4 -2 6 12 4 32 -5 56 -10 62 -11 15z"/>
<path d="M3442 7565 c0 -16 2 -22 5 -12 2 9 2 23 0 30 -3 6 -5 -1 -5 -18z"/>
<path d="M3201 7450 c0 -36 3 -71 8 -79 5 -8 7 13 4 55 -6 93 -11 103 -12 24z"/>
<path d="M3348 7470 c-2 -25 -2 -49 2 -55 4 -5 10 -30 13 -55 7 -52 38 -131
44 -113 3 7 -5 38 -16 70 -11 32 -24 90 -29 128 -8 69 -8 70 -14 25z"/>
<path d="M4481 7494 c0 -11 3 -14 6 -6 3 7 2 16 -1 19 -3 4 -6 -2 -5 -13z"/>
<path d="M3302 7470 c0 -19 2 -27 5 -17 2 9 2 25 0 35 -3 9 -5 1 -5 -18z"/>
<path d="M3213 7305 c0 -27 2 -38 4 -22 2 15 2 37 0 50 -2 12 -4 0 -4 -28z"/>
<path d="M3431 7314 c0 -11 3 -14 6 -6 3 7 2 16 -1 19 -3 4 -6 -2 -5 -13z"/>
<path d="M2660 7301 c0 -13 -9 -25 -22 -31 -13 -5 -21 -9 -18 -10 32 -9 39 -6
45 22 4 16 4 32 1 35 -3 4 -6 -4 -6 -16z"/>
<path d="M3271 7304 c0 -11 3 -14 6 -6 3 7 2 16 -1 19 -3 4 -6 -2 -5 -13z"/>
<path d="M2595 7270 c3 -5 8 -10 11 -10 2 0 4 5 4 10 0 6 -5 10 -11 10 -5 0
-7 -4 -4 -10z"/>
<path d="M2988 7275 c-9 -14 3 -105 13 -105 5 0 9 15 9 33 0 24 3 28 10 17 7
-11 10 -5 10 23 0 37 -19 45 -21 9 -1 -10 -4 -7 -8 8 -4 14 -10 20 -13 15z"/>
<path d="M3310 7270 c0 -5 5 -10 10 -10 6 0 10 5 10 10 0 6 -4 10 -10 10 -5 0
-10 -4 -10 -10z"/>
<path d="M3438 7268 c-3 -7 -2 -35 1 -63 5 -39 8 -46 16 -33 12 19 7 108 -5
108 -4 0 -10 -6 -12 -12z"/>
<path d="M3255 7240 c-3 -5 -1 -10 4 -10 6 0 11 5 11 10 0 6 -2 10 -4 10 -3 0
-8 -4 -11 -10z"/>
<path d="M2910 7221 c0 -11 4 -22 9 -25 4 -3 6 6 3 19 -5 30 -12 33 -12 6z"/>
<path d="M3201 7214 c0 -11 3 -14 6 -6 3 7 2 16 -1 19 -3 4 -6 -2 -5 -13z"/>
<path d="M3371 7214 c0 -11 3 -14 6 -6 3 7 2 16 -1 19 -3 4 -6 -2 -5 -13z"/>
<path d="M3020 7163 c0 -43 5 -41 13 5 4 18 2 32 -3 32 -6 0 -10 -16 -10 -37z"/>
<path d="M2458 7123 c7 -3 16 -2 19 1 4 3 -2 6 -13 5 -11 0 -14 -3 -6 -6z"/>
<path d="M3000 7098 c0 -13 5 -30 10 -38 7 -11 10 -5 10 23 0 20 -4 37 -10 37
-5 0 -10 -10 -10 -22z"/>
<path d="M3033 7080 c0 -25 2 -35 4 -22 2 12 2 32 0 45 -2 12 -4 2 -4 -23z"/>
<path d="M1276 6547 c3 -10 9 -15 12 -12 3 3 0 11 -7 18 -10 9 -11 8 -5 -6z"/>
<path d="M2551 6544 c0 -11 3 -14 6 -6 3 7 2 16 -1 19 -3 4 -6 -2 -5 -13z"/>
<path d="M1430 6470 c8 -5 20 -10 25 -10 6 0 3 5 -5 10 -8 5 -19 10 -25 10 -5
0 -3 -5 5 -10z"/>
<path d="M1490 6448 c14 -6 36 -12 50 -14 14 -2 26 -8 28 -14 2 -5 10 -10 17
-10 7 0 15 -6 18 -12 2 -9 23 -12 63 -11 41 2 67 -2 80 -12 17 -13 15 -13 -19
-4 -59 16 -56 3 2 -15 50 -15 81 -13 81 4 0 13 -97 42 -132 39 -36 -2 -60 6
-98 31 -14 9 -45 20 -70 23 -38 5 -41 5 -20 -5z"/>
<path d="M4280 7594 c1 -16 29 -60 29 -44 0 8 -6 24 -14 34 -8 11 -15 16 -15
10z"/>
<path d="M6263 6962 c-6 -4 -17 -20 -22 -35 -14 -36 -14 -157 -1 -157 6 0 10
16 10 35 0 38 19 83 43 104 22 18 31 -4 13 -31 -21 -32 -22 -116 -3 -152 14
-26 17 -27 23 -12 4 10 2 34 -4 54 -9 30 -9 41 4 60 26 40 -9 144 -48 142 -2
0 -8 -4 -15 -8z"/>
<path d="M4775 6490 c-45 -6 -42 -7 33 -8 46 -1 81 2 78 6 -6 10 -48 11 -111
2z"/>
<path d="M4620 6478 c0 -4 16 -8 35 -8 19 0 35 2 35 4 0 2 -16 6 -35 8 -19 2
-35 0 -35 -4z"/>
<path d="M4555 6460 l-20 -9 20 0 c11 0 29 4 40 9 l20 9 -20 0 c-11 0 -29 -4
-40 -9z"/>
<path d="M4485 6440 c-13 -5 -14 -9 -5 -9 8 0 24 4 35 9 13 5 14 9 5 9 -8 0
-24 -4 -35 -9z"/>
<path d="M4420 6415 c-14 -8 -20 -14 -15 -14 6 0 21 6 35 14 14 8 21 14 15 14
-5 0 -21 -6 -35 -14z"/>
<path d="M4634 6420 c-71 -10 -148 -37 -216 -73 -56 -30 -57 -30 -97 -15 -23
9 -43 12 -47 7 -3 -5 0 -9 6 -9 6 0 23 -9 38 -19 36 -25 107 -34 123 -15 16
19 48 18 83 -4 27 -16 37 -16 104 -5 43 7 81 9 90 4 10 -4 23 -6 30 -4 7 3 21
-1 30 -9 34 -30 45 -32 37 -9 -5 16 -1 23 17 31 21 9 20 10 -9 8 -18 -2 -34 2
-35 7 -4 14 77 18 101 6 16 -9 32 -6 73 13 29 13 45 25 36 25 -21 1 -23 21 -5
40 10 10 7 10 -16 2 -16 -6 -40 -11 -53 -11 -22 0 -24 3 -18 22 6 19 4 21 -7
11 -10 -8 -34 -9 -84 -3 -80 11 -109 11 -181 0z"/>
<path d="M4455 6280 c-4 -6 5 -10 19 -10 14 0 26 5 26 10 0 6 -9 10 -19 10
-11 0 -23 -4 -26 -10z"/>
<path d="M4298 6259 c-10 -6 -18 -14 -18 -19 0 -13 21 -12 40 0 22 14 0 32
-22 19z"/>
<path d="M7686 6204 c-9 -23 -2 -28 13 -10 7 8 8 17 3 20 -6 3 -13 -1 -16 -10z"/>
<path d="M8041 5856 c-19 -20 -22 -32 -17 -59 10 -55 52 -63 97 -18 26 26 28
33 18 54 -10 22 -46 47 -68 47 -4 0 -18 -11 -30 -24z"/>
<path d="M5480 5696 c0 -2 8 -10 18 -17 15 -13 16 -12 3 4 -13 16 -21 21 -21
13z"/>
<path d="M7710 5568 c0 -7 -6 -25 -14 -40 -8 -14 -19 -43 -26 -65 -18 -57
-127 -358 -157 -433 -41 -101 -86 -155 -217 -255 -44 -33 -84 -65 -90 -71 -6
-6 -29 -24 -52 -40 -65 -47 -104 -82 -104 -93 0 -25 23 -9 207 139 34 28 65
50 68 50 6 0 -39 -66 -54 -80 -34 -31 -184 -247 -180 -259 6 -18 22 0 119 129
52 69 96 127 99 130 13 11 71 99 71 107 0 4 25 35 56 68 67 73 82 100 138 257
24 68 58 161 76 208 35 94 78 215 87 243 4 11 0 17 -11 17 -9 0 -16 -6 -16
-12z"/>
<path d="M5511 5474 c0 -11 3 -14 6 -6 3 7 2 16 -1 19 -3 4 -6 -2 -5 -13z"/>
<path d="M5545 5330 c10 -11 20 -20 23 -20 3 0 -3 9 -13 20 -10 11 -20 20 -23
20 -3 0 3 -9 13 -20z"/>
<path d="M5596 5277 c3 -10 9 -15 12 -12 3 3 0 11 -7 18 -10 9 -11 8 -5 -6z"/>
<path d="M5780 5090 c0 -8 5 -22 10 -30 9 -13 10 -13 10 0 0 8 -5 22 -10 30
-9 13 -10 13 -10 0z"/>
<path d="M5826 4717 c3 -10 9 -15 12 -12 3 3 0 11 -7 18 -10 9 -11 8 -5 -6z"/>
<path d="M5870 4600 c6 -11 13 -20 16 -20 2 0 0 9 -6 20 -6 11 -13 20 -16 20
-2 0 0 -9 6 -20z"/>
<path d="M4779 4140 c33 -8 218 -15 251 -10 42 7 -60 18 -165 18 -82 0 -109
-3 -86 -8z"/>
<path d="M555 6720 c3 -5 8 -10 11 -10 2 0 4 5 4 10 0 6 -5 10 -11 10 -5 0 -7
-4 -4 -10z"/>
<path d="M570 6693 c0 -5 7 -17 15 -27 15 -20 20 -10 9 18 -6 16 -24 22 -24 9z"/>
<path d="M551 6685 c1 -19 18 -51 18 -35 0 8 -4 22 -9 30 -5 8 -9 11 -9 5z"/>
<path d="M650 6570 c0 -5 5 -10 11 -10 5 0 7 5 4 10 -3 6 -8 10 -11 10 -2 0
-4 -4 -4 -10z"/>
<path d="M637 6530 c-3 -11 1 -26 8 -34 8 -7 12 -15 11 -17 -2 -2 2 -10 10
-17 12 -11 13 -9 11 10 -2 12 -9 24 -15 26 -14 4 -16 32 -2 32 5 0 13 -8 19
-17 5 -10 12 -15 16 -11 10 10 -18 48 -36 48 -9 0 -19 -9 -22 -20z"/>
<path d="M697 6483 c-3 -5 5 -8 18 -8 13 0 21 3 18 8 -2 4 -10 7 -18 7 -8 0
-16 -3 -18 -7z"/>
<path d="M698 6449 c-4 -10 1 -15 13 -16 12 -1 19 5 19 15 0 13 -2 14 -9 3 -7
-11 -9 -11 -13 0 -3 10 -6 10 -10 -2z"/>
<path d="M740 6431 c0 -6 5 -13 10 -16 6 -3 10 1 10 9 0 9 -4 16 -10 16 -5 0
-10 -4 -10 -9z"/>
<path d="M737 6394 c10 -6 23 -10 30 -7 23 9 14 20 -17 20 -25 0 -27 -2 -13
-13z"/>
<path d="M1445 5670 c3 -5 8 -10 11 -10 2 0 4 5 4 10 0 6 -5 10 -11 10 -5 0
-7 -4 -4 -10z"/>
<path d="M1060 6385 c0 -12 40 -48 46 -42 4 4 -1 16 -11 27 -17 19 -35 26 -35
15z"/>
<path d="M2637 5775 c-5 -11 -2 -12 17 -4 47 22 210 -42 284 -111 13 -12 26
-19 30 -15 8 8 -36 46 -94 80 -91 55 -225 83 -237 50z"/>
<path d="M2591 5734 c-12 -15 -21 -34 -21 -43 0 -14 2 -14 11 -1 18 27 40 70
35 70 -3 0 -14 -12 -25 -26z"/>
<path d="M2887 5597 c-15 -13 -53 -36 -85 -52 -50 -27 -67 -30 -142 -29 -53 0
-74 -2 -55 -7 61 -14 130 -9 187 15 58 24 112 61 122 84 7 16 6 15 -27 -11z"/>
<path d="M1506 5523 c-6 -14 -5 -15 5 -6 7 7 10 15 7 18 -3 3 -9 -2 -12 -12z"/>
<path d="M1543 4315 c0 -8 4 -12 9 -9 4 3 8 9 8 15 0 5 -4 9 -8 9 -5 0 -9 -7
-9 -15z"/>
<path d="M1615 4254 c-19 -16 -19 -16 5 -9 31 9 50 25 30 25 -8 0 -24 -8 -35
-16z"/>
<path d="M1340 4210 c0 -5 5 -10 10 -10 6 0 10 5 10 10 0 6 -4 10 -10 10 -5 0
-10 -4 -10 -10z"/>
<path d="M3575 2896 c-11 -6 -24 -16 -30 -22 -15 -16 -80 -64 -175 -129 -47
-32 -99 -70 -116 -84 -17 -14 -57 -44 -89 -66 -32 -22 -91 -65 -131 -95 -41
-30 -115 -84 -165 -120 -158 -113 -183 -134 -172 -137 7 -3 39 15 73 39 34 24
81 57 105 73 23 17 56 39 71 50 16 10 63 44 104 75 41 31 122 90 180 130 159
112 223 158 240 172 9 7 34 26 57 42 38 25 80 73 71 81 -2 1 -12 -2 -23 -9z"/>
<path d="M6570 10115 c0 -25 5 -45 10 -45 6 0 10 20 10 45 0 25 -4 45 -10 45
-5 0 -10 -20 -10 -45z"/>
<path d="M6565 10039 c-4 -6 -5 -12 -2 -15 2 -3 7 2 10 11 7 17 1 20 -8 4z"/>
<path d="M6075 9669 c-11 -17 1 -21 15 -4 8 9 8 15 2 15 -6 0 -14 -5 -17 -11z"/>
<path d="M6001 9635 c-13 -14 -20 -25 -17 -25 12 0 56 32 56 41 0 16 -14 9
-39 -16z"/>
<path d="M10791 2953 c0 -6 -4 -20 -7 -30 -5 -14 -4 -15 5 -7 7 7 11 20 8 30
-3 11 -5 14 -6 7z"/>
<path d="M10708 2808 c-42 -83 -49 -100 -44 -105 7 -7 68 116 64 129 -2 5 -11
-5 -20 -24z"/>
</g>
</svg>
